<?xml version="1.0" encoding="utf-8"?>
<!-- Generator: Adobe Illustrator 19.2.0, SVG Export Plug-In . SVG Version: 6.00 Build 0)  -->
<svg version="1.1" id="Layer_1" xmlns="http://www.w3.org/2000/svg" xmlns:xlink="http://www.w3.org/1999/xlink" x="0px" y="0px"
	 viewBox="0 0 792 612" style="enable-background:new 0 0 792 612;" xml:space="preserve">
<style type="text/css">
	.st0{fill:#FFFFFF;stroke:#000000;stroke-width:5.4358;}
	.st1{fill:#C41230;}
	.st2{fill:#DAC792;}
	.st3{fill:#FFFFFF;}
</style>
<g>
	<g>
		<path class="st0" d="M486.6,338l-181.4,0.1L305,68.4c0,0,33.1-20.9,90.8-20.9s90.8,20.2,90.8,20.2L486.6,338z"/>
	</g>
	<path d="M477.5,329.4l-163.6,0.1l0-238.3c0,0,28.4-18.6,81.9-18.6c53.4,0,81.7,18.8,81.7,18.8L477.5,329.4"/>
	<polyline class="st1" points="365.3,308.4 365.9,309.8 373.3,319 377.2,320.2 375.3,308.1 365.3,308.4 	"/>
	<path class="st1" d="M412,305.5c0,0,0,3.7,0,3.7c0,0-43,0-43,0c0,0,0.2-3.7,0.2-3.7S412,305.5,412,305.5"/>
	<path class="st1" d="M429.2,313.1c0,0,0,3.7,0,3.7c0,0-55.3,0.1-55.3,0.1c0,0-1.7-2.7-2.7-3.8C371.2,313,429.2,313,429.2,313.1"/>
	<path class="st1" d="M335.9,213.1l0,16.4c-5.2-0.4-9.2-0.6-9.2-0.6v-16.7v0c0-2.4,2.1-4.3,4.6-4.3
		C333.8,207.9,335.9,210.7,335.9,213.1L335.9,213.1"/>
	<path class="st1" d="M314,107.4c0,0,6.7-0.4,11.9,5.9c2.1,2.4,2.9,6,5,7.8c2.6,2.3,4.7,2.4,6.7,3.4c1.2,0.6,7.2,2.9,7.9,14.5
		l-1,4.5l-30.5-0.2C313.9,142.8,314,107.4,314,107.4"/>
	<path class="st1" d="M373.5,317.8c-2.9-8.6-6.2-8.3-12-9.6c-0.6-0.2-2.5-0.2-3.5-0.9c-1-0.7-1.5-1.2-2.2-1.9
		c-12.6-10.3-20.4-4.9-21.4-5.3c-8-11.1-20.3-9.2-18.2-9.2c-0.1,0-1.3,0-2.1,0v30.2l21.2-1.3l30.9,0.5L373.5,317.8"/>
	<path class="st1" d="M373.5,317.8c-2.9-8.6-6.2-8.3-12-9.6c-0.6-0.2-2.5-0.2-3.5-0.9c-1-0.7-1.5-1.2-2.2-1.9
		c-12.6-10.3-20.4-4.9-21.4-5.3c-8-11.1-20.3-9.2-18.2-9.2c-0.1,0-1.5,0.2-2.3,0.2l0,30l21.4-1.3l30.9,0.5L373.5,317.8"/>
	<polyline class="st1" points="365.1,309.2 370.3,309.2 370.3,275.1 365.2,275.1 365.1,309.2 	"/>
	<path class="st1" d="M330.5,138.7c9.7,3.1,29.7,9.9,32.3,11.5c5.6,2.9,5.4,3.7,5.8,4.5c0.1,0.5,0.1,1,0.1,1.2
		c-5-5.8-22.1-9.4-38.1-10.3C330.5,145.5,330.6,138.7,330.5,138.7"/>
	<polyline points="412,277.8 394.2,277.8 394.2,247.2 412,247.3 412,277.8 	"/>
	<path class="st2" d="M433.3,222.8c0.1-0.1,0.7-0.2,0.7-0.2c0,0-0.4,0.7-0.6,1.9c0,0.2,0,0.7,0,1.3c0,0,0,15.4,0,15.4
		c0,0-3,0.4-3,0.4c0,0,0-15.4,0-15.4C430.4,225.4,431.4,223.5,433.3,222.8"/>
	<path class="st3" d="M478.4,171.5c-0.2-0.4,0-2.9-0.5-3.1c-7-2.4-8.8-2.6-10.8-3c-1-0.2-1.9-0.3-3.6-0.5
		c-12.6-1.3-18.5,0.4-18.9,0.3c-0.2,0-6.9,1.2-8.1,1.8c0,0-0.1,54.1-0.1,54.1c0,1,2.3-0.1,3.3,2.2c0.3,0.7,0.4,2.4,0.4,5.3l0.1,17.6
		c-1.2-0.2-2.1-0.8-3.4,1.1c0,0-0.4,66.4-0.2,66.6c0.4,0.7,2-4.3,8.6-6.9c11.2-4.4,16.3-1,19.9-1.5c3.6-0.5,3.8-2.7,11.9-6.9
		c0.2-0.1,0.7-0.3,0.8-0.2c0,0,0-32.4,0-47.8c0.1,0,0.2,0.1,0.2,0.1C478,251,478.4,171.5,478.4,171.5z"/>
	<path class="st3" d="M313.5,150c0.1-0.8,0.7-0.7,0.7-0.7c5.9-0.7,12-0.6,18-0.3c2.3,0.1,7.8,0.6,11.7,1.3c1.4,0.1,8.6,1.5,11.7,2.4
		c5,1.9,3.1,1,6.5,2.7c2.5,1.3,4.4,1.6,4.3,4.1c-0.5,0.3,4.2-2.9,2.8-2c-0.4,0-1.5,0.3-1.3-0.1c0.6-0.5,2-2.1-1.4-4.8
		c1.4-0.1,6.1-0.4,9.4-0.1c2.4,0.2,7.3,0.4,10.3,0.6c1.8-0.1,5.6,1.4,13.3,2c3.9,0.6,4.9,0.8,8.8,1.5c5.5,0.7,16.6,2.6,16.6,2.6
		s-1.6,1.6-1.6,1.6c0,0,0,3,0,3c-10.3,3.6-5.1,6.8-2.5,6.1c0,0-1.8-1.5-2.5-0.7c-3.5,4-21.3,23.7-21.4,23.7
		c-0.1,0.1,14.3,1.7,14.2,1.6v7.9c0.1,1,0.3,8.8,0.1,8.5c-2.3-1.1-4.4-4.6-6.6-5.6c-2.5-1-5.2-4-7-4.2c-1-0.1-4.7-0.6-7.3-0.5
		c-3,0-5.4,0.8-8.1,1.4c-1.1,0.2-2.8,0.8-4.3,1.4c-0.8,0.4-2.1,1.1-2.8,1.3c-2.1,1.2-3.5,1.9-4.2,2.6c-0.7,0.5-1.9,1.3-2.5,2
		c-2.1,2.3-3.8,9.9-3.8,9.8c0,0,0,7,0,7c0,0,3.3,0,3.3,0s4.9,0.1,9.1,0.8c4,0.7,5.8,1.4,8.5,2.8c1,0.5,8.1,5.7,8.5,14.5
		c0.2,4.4-0.1,7.6,0,8.5c0,0.1,0.2,0.8-0.2,0.8c-1.9-0.4-4.8-1-6.1-1.3c-0.3-0.1-0.8,0-1.1,0.1c-1.6,0.3-3.2-0.5-4.8,0.5
		c-2.1,0-2.4,0.9-4.3,0.8c-0.5,0-1.6,0.4-2.9,0.8c-1.5,0.4-2.5,0.8-3.4,1.5c-3,1-4.2,3.1-6.3,4.8c0,0,0.1,22,1.3,38.9
		c0,0.1-1,6.2-0.1,8.9c0.7,2.1,3.3,0.8,3.3,0.9c-0.1,0,3.8,8.6,3.8,8.6c-2.9-8.6-3.3,1.9-9.1,0.7c-0.6-0.2-5.1,1.2-6.2,0.5
		c-1.1-0.7-8.1,0.6-8.8,0c-12.6-10.3-16.5-5.4-17.5-5.8c-4.8-13.8-17.5-22.2-17.7-22.2c-0.1,0-0.8,0-1,0.1"/>
	<polyline points="365.3,308.4 365.9,309.8 373.3,319 377.2,320.2 375.3,308.1 365.3,308.4 	"/>
	<path d="M412,305.5c0,0,0,3.7,0,3.7c0,0-43,0-43,0c0,0,0.2-3.7,0.2-3.7S412,305.5,412,305.5"/>
	<path d="M429.2,313.1c0,0,0,3.7,0,3.7c0,0-55.3,0.1-55.3,0.1c0,0-1.7-2.7-2.7-3.8C371.2,313,429.2,313,429.2,313.1"/>
	<path class="st3" d="M412.5,132.4c-9.1-1.5-38.2-6.1-44.9-8.4c-0.2,0-2.1-0.1-2.1-0.1"/>
	<path class="st3" d="M358.7,145.1c0,0.2,1-20.1,0.9-20c0-0.1,51.4,7.3,52.4,8.1"/>
	<path class="st3" d="M363.3,121.8c0,0,7.9-7.8,8.8-9.3c0.9-1.5,2.4-10.3,2.4-11.1c0,0,0.6-2.3,0.6-2.3c0.1-0.1,8.2-5.3,8.2-5.3
		c0.7-0.2,14.1,8.6,14.1,8.5c0,0-0.5,2.8-0.5,2.8c0,0,0.1,10,0.1,11.7c0,2.3,9.4,8.8,10.5,10.6c0.6,0.6,6.4,3,6.4,3
		c0,0-1.2,1.3-1.2,1.3c-0.1,2.5-0.4,8.2,0.1,11.9c1.5,8.7,3.7,11.4,4,11.6c0.3,0.3,1.1,1.1,1.9,1.6c0.5,0.3,3.7,1.6,2.7,1.8
		c-1.6-0.4-1.8-0.1-7.4-1.1c-2.1-0.3-4.6-0.1-7.5-0.8c-3.6-0.7-7.5-0.9-10-1.4c-3.3-0.4-6.7-0.9-10.5-1.4c-2.3-0.4-1.5,0-3.9-0.6
		c-4-0.5-10.4,0-15-0.6c1,0.7-3-2.4-6.3-3.8c-3.4-1.5-6.5-0.7-6.1-1.8c-0.2,0.6,4-5.2,4.4-12.5c0-5.7,0.3-12,0.3-11.9"/>
	<path class="st3" d="M365.4,157.1c0,0,1.8,0.8,2.6,0.1l1.2,0.2c0,0-3.8,4.6-3.4,0.7L365.4,157.1"/>
	<polyline points="418.7,224.6 411.1,224.6 411.1,201.3 418.7,201.3 418.7,224.6 	"/>
	<path class="st1" d="M411.1,214.9c-4.3-7.4-12.5-12.3-22-12.3c-12.1,0-22.2,7.9-24.5,18.6l0-9.5c4.9-8,14-13.2,24.5-13.2
		c8.8,0,16.6,3.7,21.9,9.7L411.1,214.9"/>
	<path d="M407.1,166.5v16.5l-14-1.2l0-17v-0.3c0.1-2.6,3.1-4.6,7-4.6C404.4,160,407.1,163.9,407.1,166.5L407.1,166.5"/>
	<path d="M379.6,163.6v16.5l-14.2-1.2l0-17v-0.3c0.1-2.6,3.2-4.6,7.1-4.6C376.9,157.1,379.6,161,379.6,163.6L379.6,163.6"/>
	<path class="st1" d="M477.5,119.7l0-47.1c0,0-32.8-17-81.8-17c-48.9,0-81.9,18-81.9,18l0,33.7l0.3,0.1l10.3,12l0.3-1.2
		c1.1,5.9,2.4,10.8,4,12.9c5.5,7.2,19.8,15.3,19.8,15.3c0,0.1-0.6-7.3,0-11.7c0.3-1.3,0.3-8.4,0.2-8.3c0,0,2.6,0.6,8.7,1.4l37,1.8
		l11.7,6.8l7.8,20l9.3,7.4c0,0,30.5-9.6,30.5-9.6c1-0.2,1.4,0.2,1.2,0.7c-0.7,0.3-18.9,9.1-18.8,9c0.5-0.1,1-0.2,1.6-0.3
		c3.4-0.7,7.3-1.2,10.1-1.5c12.1-1.6,24.4,1.8,27.9,2.7c0.4,0.1,0.9,0.3,1.6,0.5L477.5,119.7L477.5,119.7z"/>
	<path d="M314,107.4c0,0,6.7-0.4,11.9,5.9c2.1,2.4,2.9,6,5,7.8c2.6,2.3,4.7,2.4,6.7,3.4c1.2,0.6,7.2,2.9,7.9,14.5l-1,4.5l-30.5-0.2
		C313.9,142.8,314,107.4,314,107.4"/>
	<path d="M373.5,317.8c-2.9-8.6-6.2-8.3-12-9.6c-0.6-0.2-2.5-0.2-3.5-0.9c-1-0.7-1.5-1.2-2.2-1.9c-12.6-10.3-20.4-4.9-21.4-5.3
		c-8-11.1-20.3-9.2-18.2-9.2c-0.1,0-1.3,0-2.1,0v30.2l21.2-1.3l30.9,0.5L373.5,317.8"/>
	<polyline points="366.9,223.6 387.7,227.9 393.3,237.1 397.4,244.5 397.5,248.3 392.9,248.7 388.5,235.7 379.8,229.5 371,228.2 
		364.8,227.8 363.1,227.2 364.6,226.5 364.6,224.2 366.8,223.6 	"/>
	<path class="st3" d="M395.4,253.5l0-3.3c0-3.7-0.5-7.3-2.2-10.4c-0.8-1.5-1.7-2.9-2.8-4.2c-4.9-5.9-12.8-9.7-21.7-9.7v0
		c-10.5,0-19.6,5.2-24.5,13.2l0,9.5c2.3-10.7,12.5-18.6,24.5-18.6c9.5,0,16.9,4.6,21.3,12l0.2,0.5c1.3,3.3,1.2,5.3,1.3,9.2v2.1
		L395.4,253.5"/>
	<path class="st1" d="M412,305.5c0,0-35,0-41.7,0v-30l0,0c0-0.1,0-0.2,0-0.3c0.2-7.3,6-13.1,13.1-13.1c7.1,0,13,5.8,13.1,13.1
		c0,0.1,0,0.2,0,0.3h14c0-0.2,0-0.5,0-0.7c-0.4-15-12.4-27.1-27.1-27.1c-6.9,0-13.2,2.6-18,7c-0.2,0.2-0.1,0.3-0.3,0.5v20h0
		l-0.1,34.1l5.2,0v0c7.1,0,41.7,0,41.7,0C412,309.2,412,305.5,412,305.5z"/>
	<path class="st1" d="M429.2,313.1c0,0,0,3.7,0,3.7c0,0-55.3,0.1-55.3,0.1c0,0-1.7-2.7-2.7-3.8C371.2,313,429.2,313,429.2,313.1"/>
	<path d="M349.5,214.8c0,0-0.1,16.9-0.1,16.9c-4-0.8-9.1-1.6-9.1-1.6l0-16.2v0c0-2.4,2-4.3,4.6-4.3
		C347.5,209.7,349.5,212.4,349.5,214.8L349.5,214.8"/>
	<path d="M335.7,213.1l0,16.4c-5.2-0.4-9.2-0.6-9.2-0.6v-16.7v0c0-2.4,2.1-4.3,4.6-4.3C333.6,207.9,335.7,210.7,335.7,213.1
		L335.7,213.1"/>
	<path d="M369.5,96.4c-0.1,0-0.4,0.1-0.6,0.2l-0.3-0.2c0,0-11,5.5-11,5.5c0,0,1.3,1.2,2.2,1.8c0.3,0.2,0.5,0.4,0.6,0.6
		c0,0.7,0.1,8.6,0.1,8.6c0,0-5.4,6-7.6,8.5c-0.4-0.7-0.8-1.4-1.1-2c0.9-0.3,1.6-1,1.6-1.9c0-1.1-1-2-2.2-2c-1.2,0-2.3,0.9-2.3,2
		c0,0.9,0.7,1.7,1.6,2c-1.1,1.9-3.2,5.5-3.2,5.6l0,0l1.3,1.3v2.2l0,0c0,0,0,0,0,0.1v0.1h0c0.1,0.9,0.1,5.2-0.8,9.7
		c-1.2-10.6-9.3-13.4-10.5-14c-1.9-1-4.1-1.1-6.7-3.4c-2-1.8-2.8-5.4-5-7.8c-5.2-6.3-11.8-5.9-11.8-5.9l-0.1,0c0,0,0,35.5,0.1,35.9
		l32.6,0.9c-0.3,1.6-0.6,3.1-1.1,4.4c-1.2,3,2.7,0.7,6.1,2.2l6.9,2l18.6-53.8C377.1,98.9,369.6,96.4,369.5,96.4z"/>
	<path class="st3" d="M367.1,153.1C367.1,153.1,367.1,153.1,367.1,153.1C367.3,153.2,367.3,153.2,367.1,153.1z M420.9,152.4
		c1.1-0.3,1.9-1.2,1.9-2.4c0-1.4-1.2-2.5-2.7-2.5c-1.5,0-2.7,1.1-2.7,2.5c0,1.1,0.8,2.1,2,2.4c-0.6,1-1.3,2.3-2.1,3.5
		c-0.3-0.2-0.5-0.5-0.6-0.6c-0.3-0.3-2.5-2.9-4-11.6c0,0.3,0.1-11.6,0-11.8c0,0,0,0,0.1-0.1l1.2-1.1l0,0c0,0-2.3-4-3.5-6.1
		c1-0.3,1.7-1.1,1.7-2.1c0-1.2-1.1-2.2-2.5-2.2c-1.4,0-2.5,1-2.5,2.2c0,1,0.7,1.9,1.8,2.1c-0.5,0.8-1.1,1.8-1.7,2.8
		c-1.2-2-7.8-10.4-7.8-12.6c0.1-1.7-0.1-11.6-0.1-11.7c0,0,2.9-2.2,2.9-2.3c0,0-15.7-9.3-16.4-9c0,0-17.2,4.4-17.3,4.5
		c0,0,2.8,2.5,2.8,2.5c0,0.8,0.6,12.3-0.2,13.7c-0.7,1.2-4.6,6.9-6.1,9.4c-0.7-1.3-1.6-2.8-2.3-3.9c1-0.3,1.7-1.1,1.7-2.1
		c0-1.2-1.1-2.2-2.5-2.2c-1.4,0-2.5,1-2.5,2.2c0,1,0.7,1.9,1.8,2.1c-1.2,2.1-3.5,6-3.5,6.1l0,0l1.5,1.4v1.6
		c-0.1,2.2-0.2,5.1-0.2,7.8c-0.3,4.9-2.3,9.1-3.5,11.2c-0.7-1.1-1.4-2.3-1.9-3.2c1.1-0.3,1.9-1.2,1.9-2.4c0-1.4-1.2-2.5-2.7-2.5
		c-1.5,0-2.7,1.1-2.7,2.5c0,1.1,0.8,2.1,2,2.4c-0.9,1.6-2.3,4-2.3,4l7.8,2.8l0,0c0,0-0.3-0.6-0.8-1.4c1.1,0.1,2.5,0.3,4,1
		c2.6,1.1,5.7,3.3,6.3,3.8c4.5,0.6,10.9,0.1,14.9,0.6c2.4,0.6,1.6,0.1,3.9,0.6c3.8,0.5,7.2,1,10.5,1.4c2.4,0.5,6.3,0.7,10,1.4
		c2.9,0.8,5.4,0.5,7.5,0.8c0.8,0.1,1.5,0.2,2.2,0.3c-0.4,0.7-0.6,1.1-0.6,1.1l0,0l1.6,1.6v2.9h6.2v-2.9l1.6-1.6l0,0
		C424.8,159.2,422.3,154.7,420.9,152.4z"/>
	<polyline points="412.9,277.8 395.4,277.9 395.4,247.3 412.9,247.3 412.9,277.8 	"/>
	<path d="M418,170.6h3.9v-2.6H418V170.6z M458.5,151.9c0,0-35.3,11.4-38.5,13c-1,0.5-3.2,2-3,3.2l19.9-4.4l22.3-10.6
		C459.3,153.1,460.3,151.7,458.5,151.9z"/>
	<path d="M77.6,441.2c-3.4,2.3-8.5,4-15.1,4c-7,0-9.8-1.2-14.7-2.5c-1-0.3-1.8-0.6-1.8-2.2c0-0.9-0.1-4.8-0.1-5.9
		c0-1.3,0.4-5.4,1.8-5.4c1.5,0,0.6,2.7,1.8,5.1c1.7,3.5,5,7.2,14.5,7.2c7.9,0,13.2-3.6,13.2-11.3c0-4.7-3.7-8.5-9.7-11.9l-11.1-6.2
		c-7.1-4.1-10.3-10.8-10.3-17.3c0-10.1,8.5-15.7,21.4-15.7c5.5,0,10.7,1.4,12.1,1.4c2.2,0,2.4-0.6,3.7-0.6c0.8,0-0.2,2.1-0.2,3.1
		c0,1.1,0.1,3.7,0.1,4.8c0,0.5-0.2,4-0.5,5c-0.2,1-0.2,1.5-1.1,1.5c-1.7,0-0.9-3.2-1.4-4.7c-0.4-1.3-1.8-3.2-3.3-4.2
		c-2-1.5-5-2.9-10.5-2.9c-4.9,0-11.3,2.8-11.3,9.7c0,5.3,2.7,8.3,9.1,11.7l8.4,4.4c7.1,3.8,13.9,9,13.9,17.7
		C86.4,431.2,84.4,436.9,77.6,441.2z"/>
	<g>
		<path d="M144.3,444c-2.3,0-4.8-0.2-7.1-0.2c-3.7,0-8,0.2-11.7,0.2c-0.4,0-1.9,0.1-1.9-0.6c0-1.5,4.5-0.2,4.5-3
			c0-1.2-0.3-2.9-0.8-3.9l-3.2-6.8c-0.9-2-1.3-3.6-3.3-3.6H106c-2.4,0-3.1,0-4,2.2l-3.3,7.5c-0.5,1.1-1.2,3.4-1.2,4.6
			c0,1.3,1.6,1.5,2.7,1.8c0.7,0.1,3.4,0.3,3.4,1c0,0.9-0.8,0.9-1.5,0.9c-2.3,0-4.6-0.2-6.9-0.2c-2.7,0-5.1,0.2-7.8,0.2
			c-0.7,0-2.1,0.1-2.1-0.8c0-0.7,1.8-0.7,2.3-0.7c3.2-0.5,4.4-2.1,5.6-4.6l21.6-46.3c0.2-0.4,0.4-0.9,1-0.9c0.7,0,1.2,0.9,1.3,1.3
			l21.1,45.4c0.6,1.2,1.6,2.4,2.5,3.5c1,1.2,5.4,1.2,5.4,2.5C146.1,444,144.8,444,144.3,444z M119.7,420l-6.1-13.1
			c-0.2-0.3-0.4-1.2-0.8-1.2s-0.3,0.3-0.5,0.6c-0.8,1.7-3.6,7.9-6.4,13.5c-0.6,1.2-1,2.1-1,2.3c0,0.7,0.4,0.5,1,0.5h12.3
			c0.5,0,2.2,0.1,2.2-0.6C120.4,421.6,119.9,420.5,119.7,420z"/>
		<path d="M204.9,394.7c-1,0.6-1.4,4.8-1.4,9.1v37.6c0,1.5,0.2,3.8-0.9,3.8c-1,0-2.1-1.2-3.9-2.9c0,0-18.8-16.6-21.9-19.7
			c-3-2.8-16.3-14.3-16.3-14.3c-0.6-0.6-1.3-1.1-1.9-1.1c-0.2,0-0.3,0.1-0.4,0.9c-0.2,1.7-0.1,5.3-0.1,8.4v18.3
			c0,2.8,0.7,5.7,2.3,6.7c1.8,1.2,5.3,0.7,5.3,1.6c0,0.7-0.3,0.8-2.1,0.8c-1.5,0-6.1-0.3-8.3-0.3c-2.2,0-7,0.3-7.8,0.3
			c-1,0-1.3-0.1-1.3-0.7c0-0.7,2-0.4,3.5-1.4c2.3-1.5,2.8-4.4,2.8-7.3v-39c0-3.9,0.2-3.9,0.9-3.9c0.8,0,2.7,1.5,4,2.6
			c0,0,8.9,7.2,20.3,17.8c8.2,7.5,19.7,16.9,19.7,16.9c0.3,0.3,0.9,0.2,0.9-1.3v-23.6c0-4.1-0.4-7.9-1.3-9c-1.5-1.8-4.9-0.8-4.9-1.8
			c0-0.5,0.6-0.7,1.8-0.7c0.8,0,4.3,0.3,6.5,0.3c2.2,0,5.8-0.4,6.8-0.4c0.5,0,2.3-0.2,2.3,0.6C209.5,394.2,206.6,393.7,204.9,394.7z
			"/>
	</g>
	<path d="M300.1,432.2c-6.6,8-16.4,12.2-30.1,12.2c-8,0-14.9-0.7-21.3-0.7c-5.7,0-7.9,0.4-9.9,0.4c-1.6,0-2.1-0.5-2.1-1.1
		c0-0.6,2.5-0.8,3.7-1c1.2-0.2,2.2-0.4,2.9-1.7c1-2.1,1.4-6.5,1.4-10.7v-40.9c0-5.8-3.1-6.6-8.1-6.6c-0.9,0-1.3-0.2-1.3-0.8
		c0-0.4,0.8-1,2.9-1c1.9,0,7.4,0.4,10,0.4c6.2,0,11.6-0.6,22.3-0.6c6,0,14.1,1.1,19.6,3.7c8.8,4.1,17.1,13.6,17.1,27.1
		C307.2,419.8,304.5,426.8,300.1,432.2z M265.7,383.5c-2.5,0-5.3,0-5.3,0c-2.6,0-3.9,1.1-3.9,3.5v39.8c0,3.2,0.4,10.1,1.7,10.8
		c2.2,1.4,1.6,2.7,12.5,2.7c13.5,0,24.6-6.5,24.6-26.9C295.3,396.7,284.7,383.5,265.7,383.5z"/>
	<g>
		<path d="M333,444c-0.7,0-6.3-0.3-10.3-0.3c-5.6,0-8.2,0.3-8.9,0.3c-1.1,0-1.5-0.4-1.5-0.9c0-0.2,0.7-0.7,1.5-0.7
			c1,0,1.9-0.2,2.7-0.9c1.1-1.1,1.5-2.8,1.5-6.8v-35c0-2-0.4-4.4-1.8-5c-2-0.9-4.3-0.7-4.3-1.4c0-0.4,1.2-0.7,1.8-0.7
			c0.5,0,6.8,0.3,9,0.3c2.2,0,7-0.5,8.3-0.5c1.7,0,2,0.4,2,0.8c0,0.6-2.2,0.7-3.6,1.4c-1.8,0.9-1.8,3.8-1.8,5.3V428
			c0,9.6-0.3,12.2,2.5,13.9c0.6,0.4,1.8,0.4,3.2,0.7c0.7,0.1,1.1,0.4,1.1,0.7C334.3,443.8,333.6,444,333,444z"/>
		<path class="st2" d="M436.2,221c0,0.2,0,0.2,0.1,0.4c0.6,0.6,3.1-0.2,3.4,3.1c0,0.2,0.3,12.9,0.3,16.8c0,0.3-0.7,0.3-1.5,0.4
			c-1.1,0.1-2,0.2-2,0.2c0,29-0.2,57.8-0.2,69.4c0,3.2,0.2,2.9,0.2,2.9c1.4-1.5,1.8-3.2,6.5-6c0.6-0.3,1.2-1,8-2.8
			c0-38.5-0.1-140.9,0-140.9c-6.3,0.4-13.3,2-14.6,2.6C436.3,167,436.2,221,436.2,221"/>
		<path class="st2" d="M326.5,228.8v-16.7c0-2.4,2.1-4.4,4.6-4.4c0.3,0,0.6,0,0.9,0.1c0-31.8,0-59.1,0-59.1
			c-11.9-0.4-14.6,0-18.2,0.4c0-0.1,0.1,155.7,0.1,155.7h0.1l0-13.8c0.8,0,2.3-0.2,2.3-0.2c-1.9,0.1,7.9-1.5,15.7,6.4
			c0-12.9,0-40.3,0-68.1C328.8,229,326.5,228.8,326.5,228.8z"/>
		<path class="st2" d="M326.5,228.9v-16.7c0-2.4,2.1-4.4,4.6-4.4c0.3,0,0.6,0,0.9,0.1c0-31.8,0-59.1,0-59.1
			c-11.9-0.4-14.5,0-18.1,0.3c0-0.1,0,155.7,0,155.7h0.1l0-13.8c0.8,0,2.3-0.2,2.3-0.2c-1.9,0.1,7.9-1.5,15.7,6.4
			c0-12.9,0-40.3,0-68.1C328.7,229,326.5,228.9,326.5,228.9z"/>
		<path class="st2" d="M365.5,254.7c4.8-4.4,11.1-7,18-7c4.3,0,8.2,1.3,11.8,3.1l0-0.6c0-3.7-0.4-7.3-2.1-10.4
			c-0.8-1.5-1.7-2.9-2.8-4.2c-4.9-5.9-12.8-9.7-21.7-9.7l0,0c-1.4,0-2.9,0.1-4.2,0.3l0.5,29.2C365.3,255.1,365.3,254.8,365.5,254.7z
			"/>
		<path d="M372.2,400.8c-1,0-0.8-1.6-1.1-2.1c-0.7-1.3-1.8-2.5-3.4-2.9c-1.5-0.4-3.8-0.4-5.3-0.4h-5.7c-1.5,0-1.9,0-1.9,1.4v17.5
			c0,1.1,0.2,1.1,1.4,1.1h6.8c1.2,0,3.1-0.1,4-0.7c0.9-0.7,1.1-1.7,1.3-2.6c0-0.1,0.2-1.6,0.8-1.6c0.8,0,0.9,1.4,0.9,2.3
			c0,1.3-0.5,2.5-0.5,3.8c0,1.8,0.2,2.9,0.2,4.7c0,0.4,0.2,1.6-0.7,1.6c-1.2,0-0.4-2.2-2.3-3.8c-0.8-0.7-2.6-0.6-3.7-0.6h-7.5
			c-0.8,0-0.8,0.3-0.8,0.9v17.5c0,1.2,0,2,1,2.8c1.6,1.3,3.3,1.3,5.4,1.3c2.3,0,3.1-0.1,5.3-0.8c1.5-0.5,2.5-1.5,3.3-2.6
			c0.1-0.2,0.9-2,1.4-2c0.6,0,0.6,0.6,0.6,0.9c0,0.7-0.9,2.8-1.7,4.4c-0.6,1.2-0.9,2.2-1.2,2.4c-0.5,0.4-1.7,0.7-2.4,0.7
			c-6.7,0-9.9-0.2-16.6-0.2c-2.8,0-5.5,0.3-8.3,0.3c-0.7,0-2.8,0.1-2.8-0.8c0-1.2,4.3-0.2,5.3-2.4c1.1-2.3,1.1-12.6,1.1-15.2V401
			c0-1.2-0.3-5.5-1.4-6.2c-1.3-0.9-4.6-0.7-4.6-1.5c0-0.7,1.3-0.7,1.8-0.7c2.3,0,4.5,0.3,6.8,0.3c4.2,0,8.4-0.1,12.6-0.1
			c3.4-0.1,3.6-0.2,7-0.2c1.5,0,2.9-0.1,4.4-0.1c0.9,0,0.5,1.4,0.5,1.9c0,1.7,0.2,3.4,0.2,5.1C372.7,400.2,372.7,400.8,372.2,400.8z
			"/>
	</g>
	<g>
		<path d="M431.6,420.4c-1.8,1.1-2,4.6-2,7.7v5.6c0,2.3,0,5.1,0,5.8c0,0.9,0,1.7-0.8,2c-2.1,1.1-8.5,3.4-19.3,3.4
			c-7.7,0-12.8-0.9-18.6-3.8c-8.5-4.3-13.2-11.5-13.2-23.7c0-8.8,5.1-19.3,17.2-23.6c3.4-1.2,7.6-1.9,12.2-1.9
			c11.5,0,17.8,2.6,20.3,2.6c2.3,0,2.2-1,2.8-1c0.6,0,0.5,0.5,0.5,0.9c0,0.3-0.3,1.2-0.6,4c-0.3,2.3-0.1,3.2-0.4,5.1
			c-0.3,1.2-0.3,2.1-1,2.1c-0.5,0-1-0.9-1-1.8c0-0.4,0.1-2.2-1.3-3.5c-1.8-1.7-9.8-5.4-20.1-5.4c-12.3,0-18.4,8.6-18.4,19.6
			c0,19.2,7.3,27.8,21.6,27.8c2.8,0,6.4-1.2,8-2.2c2.2-1.3,2.3-3.8,2.3-7.5v-7.8c0-1.1-0.2-3-1-3.6c-3.1-2-4.6-1.5-4.6-2.2
			c0-0.6,0.4-0.8,1.6-0.8c0.9,0,5.2,0.5,9.1,0.5c2.3,0,7.9-0.5,8.4-0.5c0.5,0,1.3,0.1,1.3,0.9C434.7,419.5,432.9,419.6,431.6,420.4z
			"/>
		<path d="M469.1,444.9c-17.8,0-29.9-10.7-29.9-26.1c0-2.5,0.2-5.1,0.9-7.8c3.1-10.8,13.2-19.2,26.6-19.2c3.6,0,7.4,0.3,11.2,1.5
			c11.8,3.6,18.8,13.5,18.8,24.1C496.8,431.9,488,444.9,469.1,444.9z M466.8,394.7c-14.3,0-17.1,12.9-17.1,21.4
			c0,14.7,7.1,26,20.3,26c12.1,0,16.7-9.4,16.7-19.3C486.6,410.4,480.8,394.7,466.8,394.7z"/>
	</g>
	<path d="M553.1,441.2c-3.4,2.3-8.5,4-15.1,4c-7,0-9.8-1.2-14.7-2.5c-1-0.3-1.8-0.6-1.8-2.2c0-0.9-0.1-4.8-0.1-5.9
		c0-1.3,0.4-5.4,1.8-5.4c1.5,0,0.6,2.7,1.8,5.1c1.7,3.5,5,7.2,14.5,7.2c7.9,0,13.2-3.6,13.2-11.3c0-4.7-3.7-8.5-9.7-11.9l-11.1-6.2
		c-7.1-4.1-10.3-10.8-10.3-17.3c0-10.1,8.5-15.7,21.4-15.7c5.5,0,10.7,1.4,12.1,1.4c2.2,0,2.4-0.6,3.7-0.6c0.8,0-0.2,2.1-0.2,3.1
		c0,1.1,0.1,3.7,0.1,4.8c0,0.5-0.2,4-0.5,5c-0.2,1-0.2,1.5-1.1,1.5c-1.7,0-0.9-3.2-1.5-4.7c-0.4-1.3-1.8-3.2-3.3-4.2
		c-2-1.5-5-2.9-10.5-2.9c-4.9,0-11.3,2.8-11.3,9.7c0,5.3,2.7,8.3,9.1,11.7l8.4,4.4c7.1,3.8,13.9,9,13.9,17.7
		C561.9,431.2,560,436.9,553.1,441.2z"/>
	<g>
		<path d="M610.5,396.5c-0.4,1.7-0.2,4.7-1.3,4.7c-1,0-0.3-2.2-1-2.8c-0.4-0.4-1.3-1.6-5.8-1.6h-8c-1.3,0-1.6-0.2-1.7,1
			c-0.1,1.5-0.2,6.4-0.2,12.7v13.8c0,6.5-0.3,14.9,1.2,16.7c0.7,0.8,1.8,1.2,2.9,1.5c1,0.3,3-0.1,3,0.8c0,0.7-1.1,0.7-2.4,0.7
			c-1.4,0-6.8-0.2-8.5-0.2c-2.5,0-9.3,0.2-9.9,0.2c-0.9,0-1.9,0-1.9-0.6c0-1.4,4.6,0.1,5.5-2.4c0.4-1.2,0.7-7.3,0.7-11.9v-21.8
			l-0.2-8.8c0-0.8,0.1-1.7-1.3-1.7h-12.2c-1.9,0-2.9,2.2-3.6,2.8c-0.7,0.6-0.1,1.6-1.1,1.6c-0.8,0-0.7-1-0.7-1.6
			c0-0.5,0.8-4.1,1.3-5.6c0.5-1.5,0.3-2.1,1.3-2.1c0.8,0,1.3,0.5,2.6,0.7c1.8,0.2,6.3,0.4,8.8,0.4h20.6c3,0,11.3-0.3,11.4-0.3
			c0.6,0,1.1,0.4,1.1,1.2C611.2,394.1,610.8,395.3,610.5,396.5z"/>
		<path d="M663.3,444c-2.3,0-4.8-0.2-7.1-0.2c-3.7,0-8,0.2-11.7,0.2c-0.4,0-1.9,0.1-1.9-0.6c0-1.5,4.5-0.2,4.5-3
			c0-1.2-0.2-2.9-0.8-3.9l-3.2-6.8c-0.9-2-1.3-3.6-3.3-3.6H625c-2.4,0-3.1,0-4,2.2l-3.3,7.5c-0.5,1.1-1.2,3.4-1.2,4.6
			c0,1.3,1.6,1.5,2.7,1.8c0.7,0.1,3.4,0.3,3.4,1c0,0.9-0.8,0.9-1.5,0.9c-2.3,0-4.6-0.2-6.9-0.2c-2.7,0-5.1,0.2-7.8,0.2
			c-0.7,0-2.1,0.1-2.1-0.8c0-0.7,1.8-0.7,2.3-0.7c3.2-0.5,4.4-2.1,5.6-4.6l21.6-46.3c0.2-0.4,0.4-0.9,1-0.9c0.7,0,1.2,0.9,1.3,1.3
			l21.1,45.4c0.6,1.2,1.6,2.4,2.5,3.5c1,1.2,5.4,1.2,5.4,2.5C665.1,444,663.8,444,663.3,444z M638.8,420l-6.1-13.1
			c-0.2-0.3-0.4-1.2-0.8-1.2c-0.4,0-0.3,0.3-0.5,0.6c-0.8,1.7-3.6,7.9-6.4,13.5c-0.6,1.2-1,2.1-1,2.3c0,0.7,0.4,0.5,1,0.5h12.3
			c0.5,0,2.2,0.1,2.2-0.6C639.5,421.6,639,420.5,638.8,420z"/>
	</g>
	<g>
		<path d="M704.8,396.5c-0.4,1.7-0.2,4.7-1.3,4.7c-1,0-0.3-2.2-1-2.8c-0.4-0.4-1.3-1.6-5.8-1.6h-8c-1.3,0-1.6-0.2-1.7,1
			c-0.1,1.5-0.2,6.4-0.2,12.7v13.8c0,6.5-0.3,14.9,1.2,16.7c0.7,0.8,1.8,1.2,2.9,1.5c1,0.3,3-0.1,3,0.8c0,0.7-1.1,0.7-2.4,0.7
			c-1.4,0-6.8-0.2-8.5-0.2c-2.5,0-9.3,0.2-9.9,0.2c-0.9,0-1.9,0-1.9-0.6c0-1.4,4.6,0.1,5.5-2.4c0.4-1.2,0.7-7.3,0.7-11.9v-21.8
			l-0.2-8.8c0-0.8,0.1-1.7-1.3-1.7h-12.2c-1.9,0-2.9,2.2-3.6,2.8c-0.7,0.6-0.1,1.6-1.1,1.6c-0.8,0-0.7-1-0.7-1.6
			c0-0.5,0.8-4.1,1.3-5.6c0.5-1.5,0.3-2.1,1.3-2.1c0.8,0,1.3,0.5,2.6,0.7c1.8,0.2,6.3,0.4,8.8,0.4H693c3,0,11.3-0.3,11.4-0.3
			c0.6,0,1.1,0.4,1.1,1.2C705.5,394.1,705.1,395.3,704.8,396.5z"/>
		<path d="M743,400.8c-1,0-0.8-1.6-1.1-2.1c-0.7-1.3-1.8-2.5-3.4-2.9c-1.5-0.4-3.8-0.4-5.3-0.4h-5.7c-1.5,0-1.9,0-1.9,1.4v17.5
			c0,1.1,0.2,1.1,1.4,1.1h6.8c1.2,0,3.1-0.1,4-0.7c0.9-0.7,1.1-1.7,1.3-2.6c0-0.1,0.2-1.6,0.8-1.6c0.8,0,0.9,1.5,0.9,2.3
			c0,1.3-0.5,2.5-0.5,3.8c0,1.8,0.2,2.9,0.2,4.7c0,0.4,0.2,1.6-0.7,1.6c-1.2,0-0.4-2.2-2.3-3.8c-0.8-0.7-2.6-0.6-3.7-0.6h-7.5
			c-0.8,0-0.8,0.3-0.8,0.9v17.5c0,1.2,0,2,1,2.8c1.6,1.3,3.3,1.3,5.4,1.3c2.3,0,3.1-0.1,5.3-0.8c1.5-0.5,2.5-1.5,3.3-2.6
			c0.1-0.2,0.9-2,1.4-2c0.6,0,0.6,0.6,0.6,0.9c0,0.7-0.9,2.8-1.7,4.4c-0.6,1.2-0.9,2.2-1.2,2.4c-0.5,0.4-1.7,0.7-2.4,0.7
			c-6.7,0-9.9-0.2-16.6-0.2c-2.8,0-5.5,0.3-8.3,0.3c-0.7,0-2.8,0.1-2.8-0.8c0-1.2,4.3-0.2,5.3-2.4c1.1-2.3,1.1-12.6,1.1-15.2V401
			c0-1.2-0.3-5.5-1.4-6.2c-1.3-0.9-4.6-0.7-4.6-1.5c0-0.7,1.3-0.7,1.8-0.7c2.3,0,4.5,0.3,6.8,0.3c4.2,0,8.4-0.1,12.6-0.1
			c3.4-0.1,3.6-0.2,7-0.2c1.5,0,2.9-0.1,4.4-0.1c0.9,0,0.5,1.4,0.5,1.9c0,1.7,0.2,3.4,0.2,5.1C743.5,400.2,743.5,400.8,743,400.8z"
			/>
	</g>
	<path d="M211.8,466.7c-4,1.5-3.3,7.3-3.3,12.1v25.5c0,17.5-10.9,25-30.6,25c-18.2,0-30.1-5.5-30.1-20.5v-30c0-4.3-0.1-10.2-0.9-11
		c-1.6-1.4-5.8-1.8-5.8-2.3c0-0.8,0.3-1.1,1.9-1.1c2.5,0,6.6,0.4,11.2,0.4c5.5,0,9.3-0.5,10.4-0.5c1.5,0,2.1,0.2,2.1,0.9
		c0,0.5-2.4,0.6-3.5,1.2c-2,1-3.1,2.5-3.1,17.1v22.9c0,10.1,5.7,19,20.6,19c14.9,0,22.5-4.6,22.5-19v-19.7c0-8.4-0.9-17.7-2.6-18.8
		c-3.1-2.1-6.9-1.8-6.9-2.5c0-0.7,0.8-0.9,2.3-0.9c1,0,5.6,0.4,9.5,0.4c3.9,0,7.2-0.4,8.1-0.4c1.1,0,2.7-0.3,2.7,0.8
		C216.1,466.2,215,465.5,211.8,466.7z"/>
	<g>
		<path d="M273.7,478.8c-1,0.6-1.4,4.8-1.4,9.1v37.6c0,1.5,0.3,3.8-0.9,3.8c-1,0-2.1-1.2-3.9-2.9c0,0-18.8-16.6-21.9-19.7
			c-3-2.8-16.3-14.3-16.3-14.3c-0.6-0.6-1.3-1.1-1.9-1.1c-0.2,0-0.3,0.1-0.4,0.9c-0.2,1.7-0.1,5.3-0.1,8.4V519
			c0,2.8,0.7,5.7,2.3,6.7c1.8,1.2,5.3,0.7,5.3,1.6c0,0.7-0.3,0.8-2.1,0.8c-1.5,0-6.1-0.3-8.3-0.3c-2.2,0-7,0.3-7.8,0.3
			c-1,0-1.3-0.1-1.3-0.7c0-0.7,2-0.4,3.5-1.4c2.3-1.5,2.8-4.4,2.8-7.3v-39c0-3.9,0.2-3.9,0.9-3.9c0.8,0,2.7,1.5,4,2.6
			c0,0,8.9,7.2,20.3,17.8c8.2,7.5,19.7,16.9,19.7,16.9c0.3,0.3,0.9,0.2,0.9-1.3v-23.6c0-4.1-0.4-7.9-1.3-9c-1.5-1.8-4.9-0.8-4.9-1.8
			c0-0.5,0.6-0.7,1.8-0.7c0.8,0,4.3,0.3,6.5,0.3c2.2,0,5.8-0.4,6.8-0.4c0.5,0,2.3-0.2,2.3,0.6C278.3,478.2,275.4,477.8,273.7,478.8z
			"/>
		<path d="M304.9,528.1c-0.7,0-6.3-0.3-10.3-0.3c-5.6,0-8.2,0.3-8.9,0.3c-1.1,0-1.5-0.4-1.5-0.9c0-0.2,0.7-0.7,1.5-0.7
			c1,0,1.9-0.2,2.7-0.9c1.1-1.1,1.5-2.8,1.5-6.8v-35c0-2-0.4-4.4-1.8-5c-2-0.9-4.3-0.7-4.3-1.4c0-0.4,1.2-0.7,1.8-0.7
			c0.5,0,6.8,0.3,9,0.3c2.2,0,7-0.5,8.3-0.5c1.7,0,2,0.4,2,0.8c0,0.6-2.2,0.7-3.6,1.4c-1.8,0.9-1.8,3.8-1.8,5.3v28.1
			c0,9.6-0.2,12.2,2.5,13.9c0.6,0.4,1.8,0.4,3.2,0.7c0.7,0.1,1.1,0.4,1.1,0.7C306.2,527.9,305.5,528.1,304.9,528.1z"/>
		<path d="M372.1,477.7c-0.9,0.4-1.8,0-3.7,1.1c-2.2,1.3-3.8,4.4-4.8,6.5l-22,43.1c-0.2,0.4-0.8,0.9-1.3,0.9c-0.6,0-0.9-0.5-1.2-0.9
			l-22.4-43.9c-1.3-2.6-2.9-5.4-6.4-6.1c-0.6-0.1-2.6-0.2-2.6-0.9c0-0.7,1.8-0.7,2.3-0.7c3.2,0,6.3,0.3,9.4,0.3
			c2.4,0,5.5-0.3,7.8-0.3c0.4,0,1.7,0,1.7,0.6c0,1-3,0.1-3,2.2c0,1.4,1.6,5.3,2.3,6.6l13.8,27.3c0.2,0.3,0.6,1.2,1.1,1.2
			c0.4,0,0.8-0.6,0.9-0.9l15.1-29.8c0.5-1.1,1-2.7,1-3.8c0-2.2-2.7-1.7-2.7-2.6c0-0.7,0.6-0.7,1.3-0.7c1.9,0,3.9,0.3,5.8,0.3
			c2,0,3.9-0.4,5.9-0.4c0.5,0,1.8,0.1,1.8,0.7C372.2,477.5,372.1,477.6,372.1,477.7z"/>
		<path d="M407.5,484.9c-1,0-0.8-1.6-1.1-2.1c-0.7-1.3-1.8-2.5-3.4-2.9c-1.5-0.4-3.8-0.4-5.3-0.4h-5.7c-1.5,0-1.9,0-1.9,1.4v17.5
			c0,1.1,0.2,1.1,1.4,1.1h6.8c1.2,0,3.1-0.1,4-0.7c0.9-0.7,1.1-1.7,1.3-2.6c0-0.1,0.2-1.6,0.8-1.6c0.8,0,0.9,1.5,0.9,2.3
			c0,1.3-0.5,2.5-0.5,3.8c0,1.8,0.2,2.9,0.2,4.7c0,0.4,0.2,1.6-0.7,1.6c-1.2,0-0.4-2.2-2.3-3.8c-0.8-0.7-2.6-0.6-3.7-0.6H391
			c-0.8,0-0.8,0.3-0.8,0.9V521c0,1.2,0,2,1,2.8c1.6,1.3,3.3,1.3,5.4,1.3c2.3,0,3.1-0.1,5.3-0.8c1.5-0.5,2.5-1.5,3.3-2.6
			c0.1-0.2,0.9-2,1.4-2c0.6,0,0.6,0.6,0.6,0.9c0,0.7-0.9,2.8-1.7,4.4c-0.6,1.2-0.9,2.2-1.2,2.4c-0.5,0.4-1.7,0.7-2.4,0.7
			c-6.7,0-9.9-0.2-16.6-0.2c-2.8,0-5.5,0.3-8.3,0.3c-0.7,0-2.8,0.1-2.8-0.8c0-1.2,4.3-0.2,5.3-2.4c1.1-2.3,1.1-12.6,1.1-15.2v-24.6
			c0-1.2-0.3-5.5-1.4-6.2c-1.3-0.9-4.6-0.7-4.6-1.5c0-0.7,1.3-0.7,1.8-0.7c2.3,0,4.5,0.3,6.8,0.3c4.2,0,8.4-0.1,12.6-0.1
			c3.4-0.1,3.6-0.2,7-0.2c1.5,0,2.9-0.1,4.4-0.1c0.9,0,0.5,1.4,0.5,1.9c0,1.7,0.2,3.4,0.2,5.1C408,484.3,408,484.9,407.5,484.9z"/>
	</g>
	<g>
		<path d="M471.3,528H466c-5.5,0-10.8-1.4-14.2-5.2l-9.7-11c-2.3-2.6-3.2-5.8-6.4-5.8h-3.2c-0.5,0-0.8,0.1-0.8,0.6v9.6
			c0,5.4,0.8,7.8,1.3,8.7c0.4,0.9,1.2,1,1.9,1.4c1,0.4,3.3,0.4,3.3,1c0,0.5-0.6,0.8-1.8,0.8c-0.8,0-6.5-0.3-8.8-0.3
			c-2.3,0-7.7,0.3-8.5,0.3c-1,0-2.5-0.1-2.5-0.7s1.9-0.8,3.3-1.4c1.9-0.8,2.3-2.9,2.3-5.7v-37.3c0-1.5-0.6-3.2-1.3-3.6
			c-2.3-1.5-5.1-1.1-5.1-1.9c0-0.5,0.2-0.8,1.4-0.8c0.8,0,5.1,0.3,9.5,0.3c4.2,0,7.8-0.5,11.2-0.5c10.3,0,19.1,4.6,19.1,12.8
			c0,9.4-9.5,13.6-10.2,14c-0.4,0.3-0.2,0.5,0.3,1.2l12.3,12.9c3.9,4.1,8.1,8.3,11.9,8.9c1,0.1,2.9-0.2,2.9,0.7
			C474.4,527.9,472.3,528,471.3,528z M436.1,480c-0.7,0-2,0-2,0c-1.9,0-2.3,1.7-2.3,3.2v19.1c0,0.9,2.1,0.7,3,0.7h3
			c3.1,0,3.2-0.3,3.7-0.4c3.6-1.4,6.3-3.4,6.3-10.7C447.7,486.4,444.2,480,436.1,480z"/>
		<path d="M502.1,525.8c-2.8,1.8-6.8,3.2-12.2,3.2c-5.7,0-7.9-0.9-11.8-2c-0.8-0.2-1.4-0.5-1.4-1.7c0-0.7-0.1-3.8-0.1-4.7
			c0-1,0.3-4.4,1.4-4.4c1.2,0,0.5,2.2,1.4,4.1c1.3,2.8,4,5.8,11.7,5.8c6.3,0,10.6-2.9,10.6-9.1c0-3.8-3-6.8-7.8-9.6l-8.9-5
			c-5.8-3.3-8.3-8.7-8.3-13.9c0-8.1,6.8-12.6,17.3-12.6c4.4,0,8.6,1.2,9.8,1.2c1.8,0,1.9-0.5,3-0.5c0.7,0-0.2,1.7-0.2,2.5
			c0,0.9,0.1,3,0.1,3.8c0,0.4-0.2,3.2-0.4,4.1c-0.2,0.8-0.2,1.2-0.9,1.2c-1.3,0-0.8-2.5-1.2-3.8c-0.3-1-1.4-2.5-2.7-3.4
			c-1.6-1.2-4-2.3-8.4-2.3c-3.9,0-9.1,2.2-9.1,7.8c0,4.3,2.2,6.7,7.3,9.4l6.8,3.6c5.8,3,11.2,7.3,11.2,14.2
			C509.2,517.8,507.6,522.3,502.1,525.8z"/>
	</g>
	<g>
		<path d="M536.1,528.1c-0.7,0-6.3-0.3-10.3-0.3c-5.6,0-8.2,0.3-8.9,0.3c-1.1,0-1.5-0.4-1.5-0.9c0-0.2,0.7-0.7,1.5-0.7
			c1,0,1.9-0.2,2.7-0.9c1.1-1.1,1.5-2.8,1.5-6.8v-35c0-2-0.4-4.4-1.8-5c-2-0.9-4.3-0.7-4.3-1.4c0-0.4,1.2-0.7,1.8-0.7
			c0.5,0,6.8,0.3,9,0.3c2.2,0,7-0.5,8.3-0.5c1.7,0,2,0.4,2,0.8c0,0.6-2.2,0.7-3.6,1.4c-1.8,0.9-1.8,3.8-1.8,5.3v28.1
			c0,9.6-0.2,12.2,2.5,13.9c0.6,0.4,1.8,0.4,3.2,0.7c0.7,0.1,1.1,0.4,1.1,0.7C537.3,527.9,536.7,528.1,536.1,528.1z"/>
		<path d="M588.6,480.6c-0.4,1.7-0.2,4.7-1.3,4.7c-1,0-0.3-2.2-1-2.8c-0.4-0.4-1.3-1.6-5.8-1.6h-8c-1.3,0-1.6-0.2-1.7,1
			c-0.1,1.5-0.2,6.4-0.2,12.7v13.8c0,6.5-0.3,14.9,1.2,16.7c0.7,0.8,1.8,1.2,2.9,1.5c1,0.3,3-0.1,3,0.8c0,0.7-1.1,0.7-2.4,0.7
			c-1.4,0-6.8-0.2-8.5-0.2c-2.5,0-9.3,0.2-9.9,0.2c-0.9,0-1.9,0-1.9-0.6c0-1.4,4.6,0.1,5.5-2.4c0.4-1.2,0.7-7.3,0.7-11.9v-21.8
			l-0.3-8.8c0-0.8,0.1-1.7-1.3-1.7h-12.2c-1.9,0-2.9,2.2-3.6,2.8c-0.7,0.6-0.1,1.6-1.1,1.6c-0.8,0-0.7-1-0.7-1.6
			c0-0.5,0.8-4.1,1.3-5.6s0.3-2.1,1.3-2.1c0.8,0,1.3,0.5,2.6,0.7c1.8,0.2,6.3,0.4,8.8,0.4h20.6c3,0,11.3-0.3,11.4-0.3
			c0.6,0,1.1,0.4,1.1,1.2C589.3,478.2,588.9,479.4,588.6,480.6z"/>
	</g>
	<path d="M652.9,478c-1.1,0.1-1.8,0.2-2.8,0.6c-1.3,0.4-4,3.2-4.8,4.1L628.8,502c-0.8,0.9-1.3,3-1.3,4.1c0,5.1,0,10.2,0,15.4
		c0,1.2,0.1,2.7,1,3.6c0.8,0.8,2.5,1.6,3.7,1.6c0.6,0,2-0.1,2,0.7c0,0.9-2.1,0.8-2.8,0.8c-2.6,0-5.6-0.2-8.2-0.2
		c-2.7,0-5.8,0.2-8.4,0.2c-0.6,0-2.8,0.1-2.8-0.7c0-0.7,2-0.7,2.6-0.9c0.8-0.3,1.5-0.6,2.2-1.1c1.3-1,1.3-4.1,1.3-5.4v-13.5
		c0-1.2-0.2-2-1-3l-17-21c-1-1.2-2.3-3-3.9-3.6c-0.8-0.3-4.4-0.7-4.4-1.2c0-0.9,2.3-0.9,2.9-0.9c2.3,0,4.6,0.3,6.8,0.3
		c2.8,0,6.3-0.3,9-0.3c0.6,0,2.6,0,2.6,0.9c0,0.6-3,0.5-3,1.2c0,1.3,1.1,2.9,1.9,3.9l12.8,15.5c0.2,0.3,0.7,0.8,1.2,0.8
		c0.4,0,0.8-0.5,1-0.8l9.9-11.9c1.3-1.6,3.8-5.1,3.8-7c0-1.7-2.9-1.2-2.9-1.7c0-0.8,1.4-0.8,2.1-0.8c1.5,0,3.1,0.2,4.6,0.2
		c2.7,0,5.3-0.2,7.9-0.2c0.6,0,2-0.1,2,0.7C654.2,478,653.1,478,652.9,478z"/>
	<path d="M402.2,138.7V154l-10.9-1.1l0-15.7v-0.3c0-2.4,2.4-4.3,5.4-4.2C400.1,132.7,402.2,136.2,402.2,138.7L402.2,138.7"/>
	<path d="M391.3,110.4v14.7l-10.5-1.3l0-14.9v-0.2c0-2.3,2.3-4.1,5.2-4.1C389.3,104.6,391.3,108,391.3,110.4L391.3,110.4"/>
	<path d="M381,136.2v15.6l-11.1-1.1l0-16v-0.3c0-2.4,2.5-4.4,5.5-4.3C378.8,130.1,381,133.7,381,136.2L381,136.2"/>
	<path class="st1" d="M362.6,150.2c5.6,2.9,5.4,3.7,5.8,4.5c0.1,0.5,0.1,1,0.1,1.2c-6.8-7.9-36.2-11.7-54.6-10.3c0,0,0-5.7,0-5.7
		c0.9-0.4,4.8-1.7,5.5-1.9c1.1-0.4,4.4-1.4,5.8-0.8C327.6,137.5,359.3,148.2,362.6,150.2"/>
	<path d="M373.5,317.8c-2.9-8.6-6.2-8.3-12-9.6c-0.6-0.2-2.5-0.2-3.5-0.9c-1-0.7-1.5-1.2-2.2-1.9c-12.6-10.3-20.4-4.9-21.4-5.3
		c-8-11.1-20.3-9.2-18.2-9.2c-0.1,0-1.5,0.2-2.3,0.2l0,30l21.4-1.3l30.9,0.5L373.5,317.8"/>
</g>
</svg>
