<?xml version="1.0" encoding="utf-8"?>
<!-- Generator: Adobe Illustrator 19.2.0, SVG Export Plug-In . SVG Version: 6.00 Build 0)  -->
<svg version="1.1" id="Layer_1" xmlns="http://www.w3.org/2000/svg" xmlns:xlink="http://www.w3.org/1999/xlink" x="0px" y="0px"
	 viewBox="0 0 300 200" style="enable-background:new 0 0 300 200;" xml:space="preserve">
<g>
	<path d="M149.6,194.7c-27.6,0-55.2-0.4-82.8,0.2c-9,0.2-11.9-2.1-11.8-11.5c0.5-55.6,0.4-111.2,0.1-166.9c0-8,1.3-11.6,10.5-11.4
		c8.7,0.1,10.9,2.7,10.8,11.2c-0.4,48.2,0.1,96.4-0.4,144.5c-0.1,10,2.2,13.3,12.8,13.1c48.2-0.6,96.4-0.1,144.5-0.4
		c8,0,11.6,1.3,11.4,10.5c-0.1,8.7-2.7,11-11.2,10.8C205.7,194.4,177.7,194.7,149.6,194.7z"/>
	<path d="M191.4,36.9c-5.6-1.1-9.7-4.2-9.6-10.3c0.1-6.5,4.2-10.7,10.7-10.3c6.5,0.3,10.3,4.8,9.6,11.3
		C201.6,33.5,197.4,36.5,191.4,36.9z"/>
	<path d="M223.5,58.9c0.9-6.9,4.2-11.2,10.9-11.1c6,0.1,9.8,4,9.9,9.9c0.1,6.6-3.9,10.6-10.5,10.5C227.7,68.2,224.8,64,223.5,58.9z"
		/>
	<path d="M181.3,79c-5.7-0.9-9.9-3.9-10-9.9c-0.2-6.6,3.8-10.8,10.4-10.7c6.6,0.1,10.4,4.4,10,11C191.3,75.2,187.3,78.3,181.3,79z"
		/>
	<path d="M139.3,78.9c7,1.6,11,5.2,10.2,11.9c-0.7,5.8-4.7,9.4-10.7,9c-5.8-0.4-9.7-4.1-9.6-10.2C129.3,82.9,133.9,80,139.3,78.9z"
		/>
	<path d="M223.5,100.2c-0.9,6-4.1,10-10,10.1c-6.5,0.1-10.7-3.8-10.6-10.4c0.1-5.9,3.9-9.8,9.8-10
		C219.3,89.6,222.6,93.9,223.5,100.2z"/>
	<path d="M107.5,110.6c6.5,0.8,10.6,4.2,10.5,10.8c-0.1,5.9-3.9,9.7-9.8,9.9c-6,0.2-10-3.4-10.5-9.2
		C97.1,115.5,101.2,111.9,107.5,110.6z"/>
	<path d="M181.4,120.5c-0.4,6-3.4,10.2-9.3,10.7c-6.5,0.6-11-3.1-11.3-9.6c-0.3-6.5,3.8-10.6,10.3-10.7
		C177.1,110.8,180.2,114.9,181.4,120.5z"/>
	<path d="M139,152.5c-5.7-1-9.8-4.1-9.8-10.1c0-6.6,4-10.7,10.6-10.5c6.6,0.2,10.4,4.7,9.8,11.2C149.1,149,145,152.1,139,152.5z"/>
</g>
</svg>
