<?xml version="1.0" encoding="utf-8"?>
<!-- Generator: Adobe Illustrator 19.2.0, SVG Export Plug-In . SVG Version: 6.00 Build 0)  -->
<svg version="1.1" id="Layer_1" xmlns="http://www.w3.org/2000/svg" xmlns:xlink="http://www.w3.org/1999/xlink" x="0px" y="0px"
	 viewBox="0 0 100 100" style="enable-background:new 0 0 100 100;" xml:space="preserve">
<style type="text/css">
	.st0{fill:#FFFFFF;}
	.st1{fill:#030303;}
	.st2{fill:#F9F8F8;}
	.st3{fill:#DDDCDC;}
	.st4{fill:#E7E6E6;}
	.st5{fill:#E6E5E5;}
	.st6{fill:#E8E7E6;}
	.st7{fill:#F7F7F7;}
	.st8{fill:none;}
</style>
<g>
	<path class="st0" d="M8,94.3C8,65.2,8.1,36,7.9,6.9c0-2.6,0.5-3.1,3.1-3.1C38,3.9,65,3.9,91.9,3.8c2.6,0,3.1,0.5,3.1,3.1
		c-0.1,28.1-0.1,56.2,0,84.3c0,2.6-0.5,3.1-3.1,3.1C63.9,94.2,36,94.3,8,94.3z"/>
	<path class="st1" d="M43.7,7.3c2.2,0,4.4-0.2,6.2,1.5c0.9,0.9,1.5,0.5,2.5,0c5.8-3,14.6-1.4,18.4,3.9c2.1,2.9,4.8,4.6,7.5,6.5
		c7.8,5.4,10.8,13.7,8.1,22.8c-1,3.5-2.3,6.6,0.2,10.4c2.5,3.7,0.4,10.1-3.2,12.9c-1.5,1.2-2.1,1.9-1.6,4.1c1.5,7-2.1,11.9-9.3,12.7
		c-2.1,0.3-3.3,0.9-4.5,2.7c-3.4,4.8-10.3,6.1-15.5,3c-1-0.6-1.5-1-2.8-0.2C44,91,37.4,89.6,33.6,83.9c-1-1.5-2.1-1.6-3.5-2
		c-6.6-1.9-9.3-6.1-7.9-12.7c0.4-2.1-0.2-2.6-1.6-3.6c-6-4.4-7.3-9.4-4-15.8c0.6-1.3,0.7-2.2,0.4-3.6c-0.9-3.3-2.1-6.6-2.1-10.1
		c-0.1-8.6,4-14.7,10.9-19.2c0.8-0.5,1.7-0.8,2.3-1.8C31.8,9.4,37.4,7.7,43.7,7.3z"/>
	<path class="st0" d="M49.2,70.5c0,2.8,0,5.5,0,8.3c0,2.7,0.6,6-3.1,6.7c-3.6,0.7-7.6,0.3-9.5-3.4c-1.2-2.4-2.4-3.2-5-3.6
		c-5.4-0.8-7.7-5.4-5.3-10.3c1.2-2.4,1.3-3.5-1.6-4.4c-2.4-0.7-4.3-2.3-5.4-4.7c-1.7-3.4-1.2-6.8,1.6-9.1c2.5-2,5.4-1.8,7.9,0.9
		c2.3,2.3,5.1,1.9,7.2-0.5c2.2-2.6,1.9-5.5-0.3-7.8c-2.2-2.3-4.9-2.1-7.3,0.1c-5.1,4.6-7.9,3.8-9.5-2.9c-2-8.4,1.9-16.1,9.8-19.2
		c0.9-0.3,1.4-0.6,1.9-1.5c2.7-5.5,8.8-8.7,14.7-8.1c2.5,0.3,3.6,1.7,3.6,4c0.1,6.2,0.1,12.4,0.3,18.7c0,2.1-1,2.3-2.7,2.3
		c-1.9,0-2.2-0.9-2.1-2.4c0-0.9-0.1-1.7,0-2.6c0.4-2.7-0.4-4.1-3.5-3.7c-2,0.3-3.7-0.1-5.3-1.9c-2.1-2.4-5-2.2-7.3,0.1
		c-2.1,2.2-2,4.8,0,7c2.2,2.4,4.9,2.5,7.2,0.2c1.2-1.2,2.2-2.4,4-1.8c2.2,0.8,1.2,2.8,1,4.1c-0.3,3.6,0.8,5.2,4.5,4.5
		c3.6-0.7,4.4,1,4.1,4.2c-0.3,3.1,0.9,7.1-0.6,9.3c-1.5,2.2-5.7,0.7-8.6,0.7c-2.5,0-2.8,1.1-2.8,3.2c0,3.6,0.5,7.1-2.6,10.3
		c-1.8,1.9-1.3,5.4,1.3,7.3c2.2,1.7,4.8,1.6,6.7-0.5c2.1-2.4,2.5-5.1,0.3-7.8c-0.4-0.4-0.9-0.7-1.3-1.2c-1.5-2.2-1.6-5.3-0.2-6.8
		c1.5-1.6,4.6-0.7,7-0.3c1,0.1,0.7,1.5,0.7,2.3C49.2,63.5,49.2,67,49.2,70.5z"/>
	<path class="st0" d="M81.1,62.8c-1-7.3-1-7.3-8-7.3c-1.4,0-2.9,0.1-4.3,0c-1.2-0.1-3,0.8-3.4-0.8c-0.4-1.7-1-3.7,0.9-5.2
		c0.6-0.4,1.1-1,1.4-1.6c1.3-2.8,1.2-5.4-1.3-7.4c-2-1.6-4.4-1.6-6.4,0c-2.5,2-3.3,5.3-1.2,7.3c2.8,2.7,2.6,5.6,2.5,8.7
		c-0.1,2.1,0.5,3.4,2.9,3c0.4-0.1,0.9,0,1.3,0c3.7,0.3,8.7-1.6,10.7,0.8c1.9,2.3,1.3,7,2.2,10.6c1.1,4.6-1.8,7.5-7.4,7.9
		c-2.5,0.1-4.1,0.3-5.2,3.2c-1.1,3.2-7.1,4.9-10.2,3.6c-1.8-0.8-2.6-2.2-2.5-4.1c0-1.4-0.2-2.9,0-4.3c0.2-1.6-1.1-4,1-4.5
		c2.2-0.4,4.8-1.2,6.8,1.1c2.3,2.6,5.3,2.8,7.6,0.3c2.1-2.3,2.5-5.4,0.2-7.8c-2.5-2.7-5.3-2.7-7.8,0.1c-2,2.3-4.7,1.5-6.9,1.1
		c-2.1-0.4-1-2.9-1-4.5c-0.1-9.6,0-19.1-0.1-28.7c0-2.5,0.3-3.8,3.2-3.4c2.6,0.3,5.2,0.1,7.8,0c1.7-0.1,2.9,0.3,4.1,1.7
		c2.4,2.6,5.2,2.5,7.5-0.1c2-2.3,1.9-4.9-0.2-7c-2.3-2.3-5.2-2.4-7.3,0c-2.9,3.4-6.5,1.2-9.6,1.8c-4.5,0.9-6.3-1-5.5-5.5
		c0.1-0.8-0.1-1.7,0-2.6c0.4-3-1.3-7.2,3.5-8.2c5.1-1.1,11.8,2.2,13,6.4c0.6,1.9,1.2,2.7,3.2,3.3c8.2,2.5,12.6,10.8,10.4,19.2
		c-0.5,1.8-0.7,3.7-1.5,5.4c-1.3,2.6-1.3,4.3,0.7,6.8C85,55.1,84.2,59,81.1,62.8z"/>
	<path class="st2" d="M64.7,44.7c0.1,1.1-0.2,2-1.5,2c-1,0-1.4-0.8-1.4-1.7c0-1,0.1-2,1.5-2C64.4,43,64.6,43.7,64.7,44.7z"/>
	<path class="st3" d="M32.2,27.3c1,0.1,1.5,0.7,1.5,1.7c-0.1,0.8-0.6,1.4-1.4,1.4c-1,0.1-1.7-0.4-1.7-1.5
		C30.6,27.9,31.2,27.4,32.2,27.3z"/>
	<path class="st4" d="M71.7,27.3c1,0,1.6,0.4,1.7,1.4c0.1,1.1-0.6,1.6-1.4,1.7c-0.7,0.1-1.3-0.5-1.4-1.3
		C70.4,28.2,70.6,27.5,71.7,27.3z"/>
	<path class="st5" d="M31.9,45.6c1.2-0.1,1.8,0.5,1.8,1.5c0,0.8-0.6,1.3-1.4,1.3c-1,0-1.7-0.4-1.6-1.5C30.7,46,31.2,45.6,31.9,45.6z
		"/>
	<path class="st6" d="M39.3,70.8c-1.1,0.1-1.7-0.3-1.7-1.4c0-0.8,0.4-1.3,1.3-1.4c1-0.1,1.7,0.5,1.7,1.4
		C40.6,70.1,40.2,70.9,39.3,70.8z"/>
	<path class="st7" d="M66.4,69.6c-0.1,1.1-0.8,1.3-1.7,1.2c-0.9-0.1-1.1-0.8-1-1.5c0.1-1.1,0.8-1.4,1.7-1.2
		C66.1,68.2,66.4,68.8,66.4,69.6z"/>
</g>
<path class="st8" d="M49.5,12L49.5,12C70.2,12,87,28.8,87,49.5v0C87,70.2,70.2,87,49.5,87h0C28.8,87,12,70.2,12,49.5v0
	C12,28.8,28.8,12,49.5,12z"/>
</svg>
