<?xml version="1.0" encoding="utf-8"?>
<!-- Generator: Adobe Illustrator 19.2.0, SVG Export Plug-In . SVG Version: 6.00 Build 0)  -->
<svg version="1.1" id="Layer_1" xmlns="http://www.w3.org/2000/svg" xmlns:xlink="http://www.w3.org/1999/xlink" x="0px" y="0px"
	 viewBox="0 0 300 200" style="enable-background:new 0 0 300 200;" xml:space="preserve">
<style type="text/css">
	.st0{fill:#D0202F;}
</style>
<g>
	<g>
		<path class="st0" d="M78.8,126.9c0-3.1,2.3-5.5,5-5.5c1.3,0,2.3,0.5,2.9,1.2l0.3-1.2h1.2v4.1H87c-0.7-1.9-1.7-3-3-3
			c-1.7,0-2.9,1.2-2.9,4.2c0,2.8,1.1,4.3,3.1,4.3c1.7,0,2.7-1.4,3-3.2h1.3c-0.3,2.8-2,4.4-4.6,4.4C80.9,132.3,78.8,130,78.8,126.9z"
			/>
		<path class="st0" d="M99,128.6h-3.7l-0.8,2.3h1.3v1.2H92v-1.2h1.1l3.5-9.3h2l3.4,9.3h1.4v1.2h-5.2v-1.2h1.6L99,128.6z M95.7,127.5
			h2.9l-1.4-4.1h-0.1L95.7,127.5z"/>
		<path class="st0" d="M112.2,121.6v1.2h-1.7v8.1h2c1.3,0,1.5-0.3,2.3-2.9h1v4.1h-8.9v-1.2h1.6v-8.1h-1.6v-1.2H112.2z"/>
		<path class="st0" d="M120.1,130.9h1.6v-8.1h-1.6v-1.2h5.3v1.2h-1.6v8.1h1.6v1.2h-5.3V130.9z"/>
		<path class="st0" d="M129.7,130.9h1.6v-8.1h-1.6v-1.2h9.3v3.6h-1c-0.6-2.1-0.9-2.4-2.2-2.4h-2.5v3.6h0.8c1,0,1.2-0.2,1.4-1.6h1
			v4.3h-1c-0.2-1.4-0.4-1.6-1.4-1.6h-0.8v3.4h1.9v1.2h-5.5L129.7,130.9L129.7,130.9z"/>
		<path class="st0" d="M143.1,126.9c0-3.2,2.4-5.5,5.2-5.5c3,0,5.2,2.2,5.2,5.5c0,3.2-2.4,5.5-5.2,5.5
			C145.4,132.3,143.1,130.1,143.1,126.9z M151.3,126.9c0-2.8-1-4.3-2.9-4.3s-2.9,1.5-2.9,4.3s1,4.3,2.9,4.3
			C150.3,131.2,151.3,129.7,151.3,126.9z"/>
		<path class="st0" d="M161.5,130.9h1.6v1.2h-5.3v-1.2h1.6v-8.1h-1.6v-1.2h5.4c3.2,0,4.1,1.4,4.1,2.7c0,1.2-0.7,2.3-2.9,2.6v0.1
			c1.8,0.3,2.3,1.1,2.4,2.3l0.1,0.9c0,0.6,0.2,0.8,0.5,0.8s0.4-0.2,0.7-0.8l0.8,0.3c-0.3,1-0.9,1.8-2,1.8c-1.3,0-2.1-0.6-2.1-2.2v-1
			c0-1.1-0.3-1.6-1.6-1.6h-1.6v3.4L161.5,130.9L161.5,130.9z M163,126.4c1.5,0,2-0.6,2-1.9c0-1.1-0.4-1.7-1.9-1.7h-1.7v3.6H163z"/>
		<path class="st0" d="M175.2,123.9H175v7h1.6v1.2h-4.3v-1.2h1.5v-8.1h-1.5v-1.2h3.9l4.9,7.5h0.1v-6.3h-1.6v-1.2h4.3v1.2h-1.5v9.5
			h-1.8L175.2,123.9z"/>
		<path class="st0" d="M188.1,130.9h1.6v-8.1h-1.6v-1.2h5.3v1.2h-1.6v8.1h1.6v1.2h-5.3V130.9z"/>
		<path class="st0" d="M204.1,128.6h-3.7l-0.8,2.3h1.3v1.2h-3.8v-1.2h1.1l3.5-9.3h2l3.4,9.3h1.4v1.2h-5.2v-1.2h1.6L204.1,128.6z
			 M200.8,127.5h2.9l-1.4-4.1h-0.1L200.8,127.5z"/>
		<path class="st0" d="M41.8,149.4h1.1c1,2,1.7,2.7,3.3,2.7c1.2,0,1.9-0.6,1.9-1.6c0-1.1-1.2-1.4-2.7-1.8c-1.7-0.4-3.5-1-3.5-3.2
			c0-1.7,1.4-3.2,3.5-3.2c1,0,2,0.4,2.6,1.1l0.3-1.1h1.2v3.7h-1.1c-0.8-1.9-1.7-2.6-3-2.6c-1,0-1.6,0.6-1.6,1.5
			c0,1.3,1.3,1.5,2.8,1.9c1.7,0.4,3.4,0.9,3.4,3.1c0,1.9-1.5,3.3-3.7,3.3c-1.2,0-2.4-0.5-3-1.2l-0.4,1.1h-1.2v-3.7L41.8,149.4
			L41.8,149.4z"/>
		<path class="st0" d="M56.3,151.8h1.8v-8.2h-0.6c-1.3,0-1.6,0.4-2.3,2.9h-1v-3.9H64v3.9h-1c-0.7-2.5-1-2.9-2.3-2.9h-0.6v8.2h1.8
			v1.2h-5.6L56.3,151.8L56.3,151.8z"/>
		<path class="st0" d="M74,149.5h-3.7l-0.8,2.3h1.3v1.2H67v-1.2h1.1l3.5-9.3h2l3.4,9.3h1.4v1.2h-5.2v-1.2h1.6L74,149.5z M70.7,148.4
			h2.9l-1.4-4.1h-0.1L70.7,148.4z"/>
		<path class="st0" d="M83.2,151.8H85v-8.2h-0.6c-1.3,0-1.6,0.4-2.3,2.9h-1v-3.9h9.8v3.9h-1c-0.7-2.5-1-2.9-2.3-2.9H87v8.2h1.8v1.2
			h-5.6L83.2,151.8L83.2,151.8z"/>
		<path class="st0" d="M95.1,151.8h1.6v-8.1h-1.6v-1.2h9.5v3.5h-1c-0.5-1.9-0.7-2.4-2-2.4h-2.9v3.4h1c1,0,1.2-0.2,1.4-1.5h1v4.2h-1
			c-0.2-1.4-0.4-1.6-1.4-1.6h-1v3.6h2.8c1.5,0,1.7-0.5,2.2-2.7h1v3.9H95v-1.1L95.1,151.8L95.1,151.8z"/>
		<path class="st0" d="M116.6,149.6v-5.9h-1.5v-1.2h5v1.2h-1.5v5.5c0,2,0.9,2.7,2.7,2.7c0.8,0,1.4-0.3,1.8-0.7
			c0.5-0.5,0.7-1.2,0.7-2.4v-5.1h-1.5v-1.2h4.3v1.2h-1.4v5.9c0,1.9-1.4,3.6-4.2,3.6C118.1,153.2,116.6,151.8,116.6,149.6z"/>
		<path class="st0" d="M133.4,144.8h-0.1v7h1.6v1.2h-4.3v-1.2h1.5v-8.1h-1.5v-1.2h3.9l4.9,7.5h0.1v-6.3h-1.6v-1.2h4.3v1.2h-1.5v9.5
			h-1.8L133.4,144.8z"/>
		<path class="st0" d="M146.4,151.8h1.6v-8.1h-1.6v-1.2h5.3v1.2H150v8.1h1.6v1.2h-5.3L146.4,151.8L146.4,151.8z"/>
		<path class="st0" d="M156.8,143.7h-1.4v-1.2h5.2v1.2H159l2.6,7.3h0.1l2.7-7.3H163v-1.2h3.8v1.2h-1.1l-3.6,9.3h-1.9L156.8,143.7z"
			/>
		<path class="st0" d="M170.4,151.8h1.6v-8.1h-1.6v-1.2h9.5v3.5h-1c-0.5-1.9-0.7-2.4-2-2.4H174v3.4h1c1,0,1.2-0.2,1.4-1.5h1v4.2h-1
			c-0.2-1.4-0.4-1.6-1.4-1.6h-1v3.6h2.8c1.5,0,1.7-0.5,2.2-2.7h1v3.9h-9.7v-1.1L170.4,151.8L170.4,151.8z"/>
		<path class="st0" d="M188.2,151.8h1.6v1.2h-5.3v-1.2h1.6v-8.1h-1.6v-1.2h5.4c3.2,0,4.1,1.4,4.1,2.7c0,1.2-0.7,2.3-2.9,2.6v0.1
			c1.8,0.3,2.3,1.1,2.4,2.3l0.1,0.9c0,0.6,0.2,0.8,0.5,0.8s0.4-0.2,0.7-0.8l0.8,0.3c-0.3,1-0.9,1.8-2,1.8c-1.3,0-2.1-0.6-2.1-2.2v-1
			c0-1.1-0.3-1.6-1.6-1.6h-1.6v3.4L188.2,151.8L188.2,151.8z M189.7,147.3c1.5,0,2-0.6,2-1.9c0-1.1-0.4-1.7-1.9-1.7h-1.7v3.6H189.7z
			"/>
		<path class="st0" d="M199.2,149.4h1.1c1,2,1.7,2.7,3.3,2.7c1.2,0,1.9-0.6,1.9-1.6c0-1.1-1.2-1.4-2.7-1.8c-1.7-0.4-3.5-1-3.5-3.2
			c0-1.7,1.4-3.2,3.5-3.2c1,0,2,0.4,2.6,1.1l0.3-1.1h1.2v3.7h-1.1c-0.8-1.9-1.7-2.6-3-2.6c-1,0-1.6,0.6-1.6,1.5
			c0,1.3,1.3,1.5,2.8,1.9c1.7,0.4,3.4,0.9,3.4,3.1c0,1.9-1.5,3.3-3.7,3.3c-1.2,0-2.4-0.5-3-1.2l-0.4,1.1h-1.2v-3.7L199.2,149.4
			L199.2,149.4z"/>
		<path class="st0" d="M211.8,151.8h1.6v-8.1h-1.6v-1.2h5.3v1.2h-1.6v8.1h1.6v1.2h-5.3V151.8z"/>
		<path class="st0" d="M223.6,151.8h1.8v-8.2h-0.6c-1.3,0-1.6,0.4-2.3,2.9h-1v-3.9h9.8v3.9h-1c-0.7-2.5-1-2.9-2.3-2.9h-0.6v8.2h1.8
			v1.2h-5.6L223.6,151.8L223.6,151.8z"/>
		<path class="st0" d="M243,143.7h-1.3v-1.2h3.8v1.2h-1.2l-3,4.9v3.2h1.5v1.2h-5.1v-1.2h1.5v-3.1l-2.9-5h-1.2v-1.2h4.9v1.2h-1.3
			l2.1,3.8L243,143.7z"/>
		<path class="st0" d="M77,165.7h-0.1v7h1.6v1.2h-4.3v-1.2h1.5v-8.1h-1.5v-1.2h3.9l4.9,7.5h0.1v-6.3h-1.6v-1.2h4.3v1.2h-1.5v9.5
			h-1.8L77,165.7z"/>
		<path class="st0" d="M89.8,168.7c0-3.2,2.4-5.5,5.2-5.5c3,0,5.2,2.2,5.2,5.5c0,3.2-2.4,5.5-5.2,5.5
			C92.1,174.1,89.8,171.9,89.8,168.7z M98,168.7c0-2.8-1-4.3-2.9-4.3s-2.9,1.5-2.9,4.3s1,4.3,2.9,4.3S98,171.5,98,168.7z"/>
		<path class="st0" d="M108.2,172.7h1.6v1.2h-5.3v-1.2h1.6v-8.1h-1.6v-1.2h5.4c3.2,0,4.1,1.4,4.1,2.7c0,1.2-0.7,2.3-2.9,2.6v0.1
			c1.8,0.3,2.3,1.1,2.4,2.3l0.1,0.9c0,0.6,0.2,0.8,0.5,0.8s0.4-0.2,0.7-0.8l0.8,0.3c-0.3,1-0.9,1.8-2,1.8c-1.3,0-2.1-0.6-2.1-2.2v-1
			c0-1.1-0.3-1.6-1.6-1.6h-1.6v3.4L108.2,172.7L108.2,172.7z M109.7,168.2c1.5,0,2-0.6,2-1.9c0-1.1-0.4-1.7-1.9-1.7h-1.7v3.6H109.7z
			"/>
		<path class="st0" d="M120.9,172.7h1.8v-8.2h-0.6c-1.3,0-1.6,0.4-2.3,2.9h-1v-3.9h9.8v3.9h-1c-0.7-2.5-1-2.9-2.3-2.9h-0.6v8.2h1.8
			v1.2h-5.6L120.9,172.7L120.9,172.7z"/>
		<path class="st0" d="M132.7,172.7h1.6v-8.1h-1.6v-1.2h5.1v1.2h-1.5v3.3h4.5v-3.3h-1.5v-1.2h5.1v1.2h-1.6v8.1h1.6v1.2h-5.1v-1.2
			h1.5V169h-4.5v3.7h1.5v1.2h-5.1V172.7z"/>
		<path class="st0" d="M152.3,172.7h1.6v1.2h-5.3v-1.2h1.6v-8.1h-1.6v-1.2h5.4c3.2,0,4.1,1.4,4.1,2.7c0,1.2-0.7,2.3-2.9,2.6v0.1
			c1.8,0.3,2.3,1.1,2.4,2.3l0.1,0.9c0,0.6,0.2,0.8,0.5,0.8s0.4-0.2,0.7-0.8l0.8,0.3c-0.3,1-0.9,1.8-2,1.8c-1.3,0-2.1-0.6-2.1-2.2v-1
			c0-1.1-0.3-1.6-1.6-1.6h-1.6v3.4L152.3,172.7L152.3,172.7z M153.9,168.2c1.5,0,2-0.6,2-1.9c0-1.1-0.4-1.7-1.9-1.7h-1.7v3.6H153.9z
			"/>
		<path class="st0" d="M163.2,172.7h1.6v-8.1h-1.6v-1.2h5.3v1.2h-1.6v8.1h1.6v1.2h-5.3V172.7z"/>
		<path class="st0" d="M172.8,172.7h1.6v-8.1h-1.6v-1.2h4.6c4.1,0,6.1,2.1,6.1,5.1s-1.9,5.3-5.9,5.3h-4.7v-1.1L172.8,172.7
			L172.8,172.7z M177.5,172.7c2.5,0,3.6-1.1,3.6-4.2c0-2.8-1.1-3.9-3.7-3.9h-1v8.1H177.5z"/>
		<path class="st0" d="M192.8,174.1c-3,0-5-2.4-5-5.5c0-3,2.3-5.5,5-5.5c1.3,0,2.3,0.5,2.9,1.3l0.3-1.2h1.2v4.1h-1.3
			c-0.7-1.9-1.6-3-3-3c-1.6,0-2.9,1.2-2.9,4.2c0,2.7,1.1,4.3,3,4.3c1,0,1.5-0.5,1.8-1c0.3-0.4,0.4-1.2,0.4-1.8v-0.3h-1.9v-1.2h5.2
			v1.2h-1.3v4.2H196l-0.5-1.5C195.1,173.5,194.2,174.1,192.8,174.1z"/>
		<path class="st0" d="M202.5,172.7h1.6v-8.1h-1.6v-1.2h9.5v3.5h-1c-0.5-1.9-0.7-2.4-2-2.4h-2.9v3.4h1c1,0,1.2-0.2,1.4-1.5h1v4.2h-1
			c-0.2-1.4-0.4-1.6-1.4-1.6h-1v3.6h2.8c1.5,0,1.7-0.5,2.2-2.7h1v3.9h-9.7v-1.1L202.5,172.7L202.5,172.7z"/>
	</g>
	<g>
		<path class="st0" d="M227.6,27.8v2.9c7.5,0.9,9.2,3.6,9.2,11v23.1h-0.4l-28.1-37h-16.7h-20.2v2.9c7.5,0.9,9.2,3.6,9.2,11v19.7
			c0,5.9-1.2,8.8-3.8,11.5c-2.2,2.2-5.2,3.4-9.1,3.4c-8.4,0-13.7-3.9-13.7-13.2V34.2c0-2.6,1.4-3.2,6.9-3.4v-3c-1.4,0-2.7,0-4.1,0
			c-3.2,0-6.5,0-9.7,0c-3.8,0-7.7,0-11.5,0c-3,0-3.7,0-6.7,0c-1.6,0-5,0-6.6-0.2c-1.6-0.3-3.6-1-5.2-1.3c-1.8-0.3-3.7-0.4-5.5-0.4
			c-10.2,0-17,7.3-17,17.2c0,9.7,7.9,12.8,15.9,15.3c9.1,3,12.6,5.1,12.6,10.5c0,4.2-2.8,8.8-9.7,8.8c-6.6,0-11.4-4-15.5-12.9H94
			v16.3h3.4l2.6-2.4c3.1,1.5,8,2.4,12.2,2.4c13.3,0,18.6-8.9,18.6-17.7c0-9.8-7.7-12.9-15-15.2c-8.7-2.8-12.6-4.5-12.6-9.9
			c0-5.1,3.6-8.3,8.4-8.3c5.8,0,10.6,2,13.2,9.3h3.3v-1.4c0-3.8,2.9-7,7.5-7s7.5,3.2,7.5,7v9v14.7v1.9c0,11.6,8.1,17.5,21.3,17.5
			c13.3,0,20.1-7.7,20.1-17.8V37.9c0-3.8,2.9-7.1,7.5-7.1s7.5,3.2,7.5,7.1v27.9c0,7.5-1,10-8.1,11.1v2.9h20.5v-2.9
			c-7.6-0.9-8.5-3.6-8.5-11.1V39.4h0.3l31.7,41.8h5.2V41.8c0-7.3,0.6-9.9,7.6-11v-2.9L227.6,27.8L227.6,27.8z"/>
		<path class="st0" d="M70.8,76.2c-8.4,0-17-7.6-17-23.3c0-15.4,7.2-23.2,15.3-23.2c6.9,0,12.2,5.8,15.4,15.4h3.6V26.2h-3.2
			l-2.3,3.4c-3.3-1.8-8.2-3.4-13.2-3.4c-15.6,0-27.5,11.9-27.5,27.9c0,15.7,9.6,27,26.2,27c11.4,0,18.5-6.3,22.2-14.9l-3-1.4
			C83.4,72.4,78.2,76.2,70.8,76.2z"/>
	</g>
	<rect x="65.3" y="100.2" class="st0" width="156.8" height="1.6"/>
</g>
<g>
	<g>
		<path class="st0" d="M249.5,77.6c0-2.3,1.7-4,4-4s4,1.7,4,4s-1.7,4-4,4C251.3,81.6,249.5,79.9,249.5,77.6z M256.9,77.6
			c0-2.1-1.3-3.5-3.4-3.5c-2,0-3.4,1.4-3.4,3.5s1.4,3.5,3.4,3.5C255.6,81.1,256.9,79.6,256.9,77.6z M253,79.1h0.6v0.4h-2v-0.4h0.6
			v-3.3h-0.6v-0.4h2.1c1.2,0,1.6,0.6,1.6,1.1c0,0.4-0.3,0.9-1.2,1v0.1c0.7,0.1,0.9,0.4,1,0.9v0.4c0,0.2,0.1,0.3,0.2,0.3
			s0.2-0.1,0.3-0.3l0.3,0.1c-0.1,0.4-0.4,0.7-0.8,0.7s-0.7-0.2-0.8-0.8v-0.4c0-0.4-0.2-0.6-0.7-0.6H253V79.1z M253.6,77.4
			c0.6,0,0.9-0.3,0.9-0.8s-0.3-0.7-0.8-0.7H253v1.5H253.6z"/>
	</g>
</g>
</svg>
