<svg id="Layer_1" data-name="Layer 1" xmlns="http://www.w3.org/2000/svg" viewBox="0 0 576 576"><defs><style>.cls-1{fill:#fff;}.cls-2{fill:#c75b12;}</style></defs><title>UTDemblem_flame</title><circle class="cls-1" cx="288.18" cy="288.18" r="253.66"/><path class="cls-2" d="M430.06,173.2,423.43,175c-3.31-6.63-7.53-10.24-18.08-10.24H306.07V433.89c0,10.85,4.82,14.77,11.45,14.77l1.32,5.42H254.43l1.32-5.42c6.33,0,11.75-4.22,11.75-14.77V164.77h-99c-10.24,0-16,4.22-18.38,10.24l-6.63-1.81,9.64-41.28c2.41.9,7.83,1.51,16,1.51h238c4.52,0,10.85-.6,13.26-1.51ZM394.44,415.62c-27.47,0-61.74-1-70.35-1.94v-6.13c6.62,0,10.92-4.51,10.92-10.32V205.05c0-6.45-4.3-10.64-10.92-10.64V188c10.59-1,45.85-2.26,69.68-2.26,51,0,78.44,27.09,78.44,108.67C472.22,377.89,449.38,415.62,394.44,415.62Zm7-196.7c-4.63,0-24,0-26,.32V382.4c2,.32,21.69.32,24,.32,21.18,0,31.11-24.83,31.11-88.35C430.52,234.72,417.94,218.92,401.39,218.92ZM249.68,194.71v-6.45s-26.14.19-47,.15c0,0-4.56,5.26-4.56,18.25V367.25c0,12.9-9.27,19-20.19,19-10.26,0-19.86-5.16-19.86-19V206.66c0-8.06,4.63-12.25,10.92-12.25v-6.13H124.62s-6.6,6.22-6.6,18.38V371.11c0,8.71-.33,13.22-2.32,18.7,10.92,13.22,31.11,29.34,62.22,29.34,27.47,0,63.15-4.21,71.76-5.18v-6.13c-6.62,0-10.92-4.51-10.92-10.32V205.35C238.76,198.91,243.07,194.71,249.68,194.71ZM74.61,384.46a2,2,0,0,0-.58,2.41l3,5.64,16.14-8.58c1.42-.76,1.76-1.5,1.23-2.48l.75-.39,5,9.43-.74.4c-.53-1-1.35-1.15-2.77-.4l-16.14,8.58,3,5.54a2.16,2.16,0,0,0,2.39,1l.24,1.18-6.83,1.9a6.85,6.85,0,0,0-.79-2l-9.13-17.08a6.31,6.31,0,0,0-1-1.39l5.39-4.59Zm9.48-30-.79.28c-.37-1-1.13-1.35-2.64-.81l-7.52,2.7,3.29,9.18,7.52-2.7c1.48-.53,1.91-1.25,1.53-2.31l.79-.28,3.63,10.11-.79.28c-.36-1-1.13-1.35-2.64-.81L66.6,377.26a1.6,1.6,0,0,0-1.09,2.15l-.79.29-3.63-10.11.79-.29c.37,1.05,1.1,1.36,2.61.82L71,367.77l-3.29-9.18-6.95,2.49a1.55,1.55,0,0,0-1.09,2.15l-.79.29-3.62-10.08.79-.28c.38,1,1.09,1.32,2.6.78l19.46-7c1.48-.53,2-1.14,1.54-2.27l.79-.28Zm-8.44-34.92a10.58,10.58,0,0,0,.14,2.76l3.62,17.45-.83.17c-.23-1.09-1-1.48-2.29-1.21L55.57,343A1.79,1.79,0,0,0,54,345l-.79.16-3.68-17.73a17.23,17.23,0,0,0-.74-2.25l6.38-2.8.44.79a2.43,2.43,0,0,0-.86,2.84l1.9,9.15,4.53-.94-1.73-8.34c-.19-.89-.59-1.31-1.41-1.14l-.19-.93,7.61-1.58.19.93c-.79.16-1,.71-.8,1.6l1.73,8.34L72.16,332l-1.92-9.27a2.44,2.44,0,0,0-2.2-2.29l.1-1Zm-26.07-55.8,15.58.61c1.61.06,3.25,0,3.76-.35,3.31,3.48,5.06,6.53,4.84,12.22s-2.16,9.43-5.8,12.63c-.49-.39-1.82-.57-3.73-.64l-15.69-.62c-1.6-.06-2,.54-2.09,1.57l-.84,0L46,278.42l.84,0c0,1.11.36,1.67,2,1.73l15.2.6c2.79.11,4-2,4.09-4.88.1-2.56-1.24-4.39-3.65-4.49l-15.28-.6c-1.61-.07-2,.42-2.09,1.53l-.84,0,.4-10.28.84,0C47.45,263.17,48,263.69,49.58,263.75Zm5.74-35,23.41,4.46-1.21,6.37a5.65,5.65,0,0,0-2.55.48l-16.36,7.06,0,.16L72.48,250c1.54.29,2.23-.08,2.44-1.17l.83.16-1.83,9.66-.83-.16c.2-1.09-.26-1.73-1.83-2l-20.63-3.93a1.72,1.72,0,0,0-2.19,1.26l-.83-.16,2-10.35a6.24,6.24,0,0,0,2.62-.68l12.15-5.17,0-.16-10.44-2c-1.43-.27-2,.12-2.22,1.26l-.83-.16,1.84-9.7.83.16C53.34,227.89,53.74,228.47,55.31,228.77Zm25.38-1.9-.8-.25c.32-1-.06-1.75-1.59-2.22l-20-6.21a1.72,1.72,0,0,0-2.31,1l-.8-.25,3.17-10.25.8.25c-.29.95,0,1.73,1.52,2.2l19.86,6.16c1.49.46,2.24.13,2.57-.93l.8.25Zm-6.31-49.6,15.15,15.9a4.85,4.85,0,0,0,1.37,1.15.86.86,0,0,0,1.24-.44l.78.34-4.15,9.36-.77-.34a.88.88,0,0,0-.49-1.25,4.39,4.39,0,0,0-1.84-.27l-22.14-.58c-1.69-.07-2,0-2.5,1l-.77-.34,4.83-10.91.77.34c-.42.94-.49,1.68.38,2.07a4.61,4.61,0,0,0,1,.23L82.93,195l0-.07L71.23,184.41a3.68,3.68,0,0,0-.87-.61c-.8-.36-1.33.27-1.66,1l-.77-.34,4.58-10.34.77.34C72.82,175.51,73.21,176,74.39,177.28Zm35.72-12.59a10.84,10.84,0,0,0-1.79,2.1l-9.37,15.13-.72-.44c.59-.95.29-1.77-.82-2.45l-18-11.15a1.79,1.79,0,0,0-2.56.36l-.68-.42,9.52-15.37a17.89,17.89,0,0,0,1-2.14l6.55,2.36-.23.88A2.43,2.43,0,0,0,90.46,155l-4.92,7.93,3.94,2.44L94,158.14c.48-.77.48-1.36-.24-1.8l.5-.81,6.61,4.09-.5.81c-.68-.42-1.21-.16-1.68.61l-4.48,7.23,4.88,3,5-8a2.44,2.44,0,0,0,0-3.17l.79-.68ZM123.32,147a34.64,34.64,0,0,1-8.16-2.89c-.26.37-.72,1-1.22,1.61s-.94,1.09-1.34,1.51l4,3.3c1.24,1,2,.92,2.68.06l.65.53-6.81,8.3-.65-.53c.66-.8.66-1.59-.58-2.61L95.6,142.89a1.66,1.66,0,0,0-2.53.07l-.65-.53c1.14-1.52,3.61-4.94,6.27-8.2,5.39-6.57,10.73-10.85,16.83-5.86A8.75,8.75,0,0,1,118,138a29,29,0,0,0,8.7,1.94,2.2,2.2,0,0,0,2.11-.94l.65.53Zm-19.74-10c-.55.67-1,1.33-1.35,1.77l6.27,5.14c.58-.59,1.14-1.21,1.64-1.81,2.77-3.38,3-5.77.77-7.64C108.81,132.69,106.49,133.41,103.59,137Zm37.19-7.16c-1.9,1.78-5.15,3.63-6.09,4.51a4.09,4.09,0,0,0-.93,1.24l-7.11-5.35.77-1.3a5.81,5.81,0,0,0,2.45.74c1.69,0,3.51-.61,6.22-3.16,2.56-2.4,2.82-4.07,1.85-5.1-.71-.76-1.75-.72-7.54,1.51-4.89,1.91-8.21,1.82-10.53-.66-3.35-3.58-2.86-9,2.72-14.21,1.45-1.36,3.79-2.66,4.61-3.43a4,4,0,0,0,.93-1.19l6,5.1-.72,1a3.58,3.58,0,0,0-2.36-.35c-1.14.23-2.34.78-4.41,2.73-2.29,2.15-2.4,3.72-1.7,4.48s2.1.49,6.82-1.36c4.23-1.66,8.16-2.36,11.22.91C146.4,119.59,146.53,124.39,140.78,129.79Zm11.54-11.21-.51-.67c.85-.65,1-1.46,0-2.74L139,98.53A1.72,1.72,0,0,0,136.5,98l-.51-.67,8.53-6.55.51.67c-.79.61-1,1.4,0,2.68l12.7,16.5c1,1.24,1.76,1.4,2.64.72l.51.66Zm23.06-39.32a2,2,0,0,0-2.45-.43l-5.47,3.34L177,97.76c.84,1.37,1.6,1.67,2.56,1.08l.44.72-9.13,5.58-.44-.72c1-.58,1.07-1.42.23-2.79l-9.55-15.59-5.36,3.28a2.15,2.15,0,0,0-.83,2.44l-1.17.31-2.31-6.7a6.82,6.82,0,0,0,1.92-.91L169.9,74.36a6.33,6.33,0,0,0,1.33-1.08l4.92,5.11Zm28.84-17.61-1.63,17.53,2.18,5.07c.62,1.44,1.27,1.71,2.3,1.26l.33.78-9.83,4.21-.33-.77c1-.44,1.3-1.06.66-2.53l-2.16-5L181.94,71.29c-1.75-1.37-2.1-1.43-2.86-1.11l-.33-.77,10.61-4.55.33.77a1.31,1.31,0,0,0-.82,1.64,2.71,2.71,0,0,0,.61.78L197.05,75l.07,0,.3-10.38a2.31,2.31,0,0,0-.16-1c-.24-.56-.84-.81-1.64-.47l-.33-.77L205,58.15l.33.77C204.65,59.22,204.42,59.61,204.21,61.65ZM255.48,74.3c-8.74,1.29-14.7-4.1-15.89-12.16-1.31-8.89,4.06-14.94,11.74-16.07s14.61,3.15,15.91,12C268.43,66.21,264.26,73,255.48,74.3Zm-3.37-22.58c-3.35.49-5.76,3.67-4.93,9.31s3.71,8.23,7.43,7.68c3.88-.57,5.75-4,5-9.46C258.67,53.19,255.42,51.23,252.11,51.72Zm42.4-.74c-.63-1-1.09-1.4-2.21-1.38l-9.74.17.09,5.32,8.42-.14c1,0,1.48-.37,1.47-1.21h1l.13,7.81-.91,0c0-.81-.64-1.14-1.54-1.12l-8.42.14.12,7.77c0,1.38.57,2,1.69,2v.84l-10.73.18v-.84c1,0,1.64-.56,1.62-2l-.35-21.21a1.71,1.71,0,0,0-1.68-1.88v-.84l18.12-.31a11.09,11.09,0,0,0,2.31-.31l1.6,6.79Zm57.22,9.24a2,2,0,0,0-1.44-2l-6.23-1.45-4.14,17.79c-.37,1.56,0,2.31,1.06,2.56l-.19.82-10.42-2.43.19-.82c1.09.25,1.76-.26,2.12-1.82l4.14-17.79-6.12-1.43a2.16,2.16,0,0,0-2.3,1.15l-1-.6,3.06-6.39a6.75,6.75,0,0,0,2,.7l18.86,4.4a6.38,6.38,0,0,0,1.7.16l-.08,7.08Zm19.57,28.42a10.61,10.61,0,0,0-2.4-1.36L352.25,81l.3-.79c1,.39,1.79-.06,2.25-1.28l7.48-19.8a1.79,1.79,0,0,0-.84-2.45l.29-.75,16.92,6.39a18.19,18.19,0,0,0,2.3.58l-1.05,6.89-.91-.06A2.43,2.43,0,0,0,377,67.49l-8.73-3.3-1.64,4.33,8,3c.85.32,1.42.21,1.72-.58l.89.33-2.74,7.27-.89-.34c.28-.75-.07-1.21-.92-1.53l-8-3-2,5.37,8.84,3.34a2.44,2.44,0,0,0,3.11-.63l.82.64ZM390.93,98l.4-.74c.69.37,1.23.32,1.47-.12a2.48,2.48,0,0,0,.2-1.41l-.57-6.14-.07,0-5.45,2.88a2.42,2.42,0,0,0-1,1c-.27.51.06.94.67,1.28l-.4.74L376,90l.4-.74c1,.53,1.45.26,3.31-.65L391.36,83l-1.69-12.93c-.25-1.79-.31-2.38-1.29-2.91l.4-.74L399.1,72l-.4.74a.93.93,0,0,0-1.42.36,2.48,2.48,0,0,0-.12,1l.5,6.1,0,0L403,77.45a2,2,0,0,0,.82-.82,1,1,0,0,0-.45-1.42l.4-.74L414,80l-.4.74c-1-.53-1.77-.3-3.52.53l-11.33,5.5,1.67,13c.2,1.63.29,2.59,1.27,3.12l-.4.74ZM418,115.94l.5-.67c.85.64,1.54.63,2,.05a4.31,4.31,0,0,0,.38-.91l.23-.64a15.35,15.35,0,0,1-3.93-2.19,16,16,0,0,1-3.13-3.12l-.67.41a2.45,2.45,0,0,0-.77.61c-.46.61-.21,1.18.48,1.7l-.5.67L404,105.4l.51-.67c.82.62,1.18.7,2.58-.21l18.7-12.17a6.8,6.8,0,0,0,1.14-1,.86.86,0,0,0-.19-1.34l.51-.67L436,96l-.5.67a.89.89,0,0,0-1.39.2,6.25,6.25,0,0,0-.71,1.77L427,119.41c-.48,1.6-.32,2,.47,2.61l-.5.67Zm8.94-17.4,0,0-8.67,6.59a13.88,13.88,0,0,0,2.26,2.28,8,8,0,0,0,2.55,1.35Zm9.15,34.25c-1.86-1.82-3.84-5-4.76-5.89a4.14,4.14,0,0,0-1.28-.88l5-7.32,1.33.71a5.83,5.83,0,0,0-.64,2.48c.08,1.69.76,3.48,3.42,6.08,2.51,2.46,4.18,2.64,5.17,1.64.72-.74.64-1.78-1.82-7.46-2.12-4.81-2.17-8.12.21-10.55,3.43-3.5,8.84-3.23,14.3,2.12,1.41,1.39,2.82,3.67,3.62,4.45a3.87,3.87,0,0,0,1.22.88l-4.84,6.18-1-.68a3.56,3.56,0,0,0,.25-2.38c-.28-1.13-.87-2.3-2.91-4.29-2.25-2.2-3.82-2.24-4.54-1.5s-.4,2.12,1.65,6.76c1.83,4.15,2.69,8-.44,11.24C446.52,138,441.73,138.31,436.09,132.78ZM471,175.84l.72-.44c.56.91,1.2,1.15,1.82.77a3.91,3.91,0,0,0,.68-.71l.45-.52a15.4,15.4,0,0,1-2.86-3.48,16,16,0,0,1-1.78-4.05l-.77.14a2.49,2.49,0,0,0-.94.29c-.65.4-.63,1-.18,1.76l-.72.44-5.61-9.11.71-.44c.54.88.85,1.08,2.48.75l21.83-4.49a6.39,6.39,0,0,0,1.41-.48.86.86,0,0,0,.32-1.31l.72-.44,5.74,9.32-.71.44A.88.88,0,0,0,493,164a6.09,6.09,0,0,0-1.3,1.38l-13.53,17c-1,1.32-1,1.75-.51,2.6l-.72.44Zm14.66-12.93,0,0-10.47,3a13.73,13.73,0,0,0,1.28,3,7.89,7.89,0,0,0,1.88,2.19Zm19.14,36.4a2,2,0,0,0,.72-2.37l-2.66-5.82-16.64,7.56c-1.47.66-1.85,1.39-1.39,2.4l-.77.35-4.44-9.73.77-.35c.46,1,1.27,1.23,2.74.57l16.65-7.56-2.61-5.71a2.16,2.16,0,0,0-2.32-1.12l-.17-1.19,6.94-1.47a6.78,6.78,0,0,0,.66,2l8,17.62a6.53,6.53,0,0,0,.91,1.44l-5.67,4.25Zm-8,44.89c-.62-3.54-1.16-7.47-1.29-9.29l.83-.15c.19,1.1.85,1.53,2.43,1.25l20.67-3.64a1.74,1.74,0,0,0,1.6-2l.83-.15c.55,2,1.36,5.55,2.12,9.82,1.92,10.94-2.59,17.06-10.42,18.44C505.3,260,498.91,256.32,496.78,244.2Zm22-1.81c-.12-.69-.32-1.62-.48-2.26l-15.93,2.8a17.29,17.29,0,0,0,.27,2.22c.78,4.43,4.1,6.74,9.52,5.79S519.45,246.41,518.74,242.39ZM501,279.61l.84,0c0,1.07.49,1.59,1.21,1.56a3.93,3.93,0,0,0,.94-.29l.64-.23a15.61,15.61,0,0,1-.79-4.43,15.9,15.9,0,0,1,.44-4.4l-.74-.26a2.43,2.43,0,0,0-1-.21c-.76,0-1,.58-1,1.45l-.84,0-.44-10.69.84,0c0,1,.21,1.36,1.8,1.87l21.24,6.81a6.6,6.6,0,0,0,1.47.27.86.86,0,0,0,.92-1l.84,0,.45,10.94-.84,0a.88.88,0,0,0-1-1,6,6,0,0,0-1.82.57L504,288.79c-1.54.64-1.75,1-1.71,2l-.84,0Zm19.11-4.06v0l-10.58-2.56a14,14,0,0,0-.33,3.2,8.14,8.14,0,0,0,.58,2.83Zm-21.3,39.3a8,8,0,0,0,.63-2.31l1.67-18,.84.08c-.1,1.07.42,1.7,1.95,1.84l21,2a1.69,1.69,0,0,0,2-1.47l.84.08-1,10.69-.84-.08c.1-1-.38-1.69-1.9-1.84L505.75,304l-.89,9.7a2.32,2.32,0,0,0,1.45,2.54l-.4,1Zm-5.21,25.86a7.89,7.89,0,0,0,.92-2.21l3.88-17.73.82.18c-.23,1.05.21,1.74,1.7,2.07l20.64,4.49a1.69,1.69,0,0,0,2.18-1.22l.82.18-2.3,10.5-.82-.18c.21-1-.17-1.73-1.67-2.05l-17.95-3.9-2.09,9.53a2.33,2.33,0,0,0,1.13,2.7l-.51.91Zm-6.46,20.7.79.29c-.37,1-.16,1.66.53,1.91a4,4,0,0,0,1,.09l.68,0a15.15,15.15,0,0,1,1-4.4,15.72,15.72,0,0,1,2.08-3.9l-.59-.52a2.41,2.41,0,0,0-.81-.56c-.72-.26-1.19.14-1.49,1l-.79-.29,3.67-10.05.79.29c-.36,1-.32,1.34,1,2.41L512,362a6.58,6.58,0,0,0,1.25.81.86.86,0,0,0,1.23-.57l.79.29-3.75,10.29-.79-.29a.88.88,0,0,0-.59-1.27,6.17,6.17,0,0,0-1.9-.16L486.43,371c-1.67,0-2,.28-2.35,1.21l-.79-.29Zm19.26,3.49v0l-8.84-6.38A13.85,13.85,0,0,0,496,361.3a8,8,0,0,0-.54,2.83ZM476.28,383.6c1.21-2.31,3.67-5.12,4.26-6.25a4,4,0,0,0,.46-1.48l8.48,2.69-.29,1.48a5.83,5.83,0,0,0-2.56.11c-1.6.57-3.11,1.73-4.83,5-1.62,3.11-1.32,4.76-.06,5.41.92.48,1.89.1,6.61-3.91,4-3.42,7.15-4.43,10.17-2.85,4.35,2.26,5.66,7.51,2.13,14.28-.92,1.76-2.7,3.76-3.21,4.75a4.13,4.13,0,0,0-.49,1.42l-7.32-2.84.35-1.17a3.56,3.56,0,0,0,2.35-.45c1-.59,1.95-1.5,3.26-4,1.45-2.78,1-4.3.12-4.78s-2.15.23-6,3.54c-3.44,3-6.92,4.91-10.89,2.84C474.35,395.07,472.63,390.59,476.28,383.6ZM124.8,435.47l7.86,7.46,9-4.62-4.14,9.23,7.85,7.46L135,453.25l-4.14,9.23-2.3-10.32-10.43-1.76,9-4.62Zm75.15,75a10.82,10.82,0,0,0-2.34-1.47L181.27,502l.33-.77c1,.44,1.79,0,2.31-1.17l8.41-19.41a1.79,1.79,0,0,0-.72-2.48l.32-.74,16.61,7.2a17.87,17.87,0,0,0,2.27.69l-1.38,6.82-.9-.1a2.44,2.44,0,0,0-1.83-2.34L198.11,486l-1.84,4.25,7.81,3.39c.84.36,1.41.28,1.75-.49l.87.38-3.08,7.13-.88-.38c.32-.74,0-1.21-.85-1.58l-7.81-3.39-2.29,5.26,8.68,3.77a2.44,2.44,0,0,0,3.13-.48l.79.68Zm19,6.61c-2.5-.73-5.74-2.59-7-3a4.06,4.06,0,0,0-1.54-.17l1-8.83h1.5a5.81,5.81,0,0,0,.61,2.49c.87,1.45,2.31,2.7,5.88,3.75,3.37,1,4.93.36,5.33-1,.29-1-.27-1.87-5.14-5.72-4.14-3.24-5.75-6.13-4.8-9.4,1.37-4.7,6.26-7,13.61-4.87,1.91.55,4.23,1.91,5.3,2.22a4,4,0,0,0,1.49.2l-1.35,7.73-1.22-.12a3.55,3.55,0,0,0-.91-2.21c-.78-.87-1.86-1.62-4.59-2.42-3-.88-4.42-.18-4.71.81s.64,2.06,4.64,5.18c3.58,2.79,6.18,5.82,4.93,10.12C230.54,516.79,226.48,519.35,218.9,517.14Zm44.79-11.74a2,2,0,0,0-1.58-1.91l-6.33-1-2.87,18c-.25,1.59.14,2.31,1.23,2.48l-.13.83-10.58-1.67.14-.83c1.1.17,1.74-.38,2-2l2.87-18-6.21-1a2.15,2.15,0,0,0-2.22,1.31l-1.09-.52,2.6-6.59a6.88,6.88,0,0,0,2,.56l19.16,3a6.32,6.32,0,0,0,1.71,0l.42,7.07Zm4.46,20.37c-1.81-.14-3.34-1.29-3.19-3.2a3.2,3.2,0,0,1,3.65-2.75,3.14,3.14,0,0,1,3.11,3.27C271.57,525,270,525.91,268.16,525.77Zm28.55.09,0-.84c1-.06,1.62-.55,1.52-2.38l-.89-16.12a21.74,21.74,0,0,1-5.6,1.31l-.23-4c1.69-.25,6.66-1.56,7.64-4.87l5.2-.29a6.85,6.85,0,0,0-.21,2.23l1.19,21.39c.1,1.76.79,2.25,1.82,2.2l0,.84Zm31.65-3c-2.72.48-6.32.76-7.13.91a6.29,6.29,0,0,0-1.55.47l-3.12-7,.85-.38c1.41,1.38,3.54,2,7.89,1.21,4.84-.85,7-3.79,6.43-7.27a16.54,16.54,0,0,1-6.51,2.54c-6.87,1.21-11.34-1.57-12.19-6.39-.93-5.27,2.26-10,10.31-11.41,8.46-1.49,13.87,2.57,15.36,11C340.34,515.88,335.56,521.58,328.36,522.84ZM324.68,501c-3.33.59-5.16,2.11-4.74,4.52s2.53,2.93,5.66,2.38a12.18,12.18,0,0,0,5.24-2.13C330.27,502.47,328.18,500.39,324.68,501Zm37.15,13.77c-8.46,2.74-14.18-.6-16.85-8.87-2.86-8.85,1.53-15.58,9-18a62.53,62.53,0,0,1,6.16-1.51,6.3,6.3,0,0,0,1.49-.64l4,6.33-.77.57c-1.6-1.17-2.92-1.63-8,0-4.49,1.45-6.22,4.43-5.34,8a15.51,15.51,0,0,1,5.91-3.36c6.61-2.14,11.57-.64,13.31,4.74C372.35,506.83,369.31,512.36,361.84,514.78Zm-4-12.07a11.16,11.16,0,0,0-4.7,2.68c1,3.21,3.2,5.2,6.58,4.1,3.23-1,4.67-3,4-5C363.06,502.31,360.88,501.73,357.85,502.71Zm34-.26c-2.48,1.21-5.87,2.47-6.61,2.83a6.18,6.18,0,0,0-1.36.87l-4.91-5.86.71-.6c1.74.94,3.94.93,7.92-1,4.42-2.15,5.65-5.55,4.19-8.75a16.58,16.58,0,0,1-5.56,4.23c-6.27,3-11.34,1.6-13.48-2.81-2.34-4.81-.57-10.22,6.79-13.79,7.72-3.75,14-1.34,17.78,6.37C401.42,492.47,398.39,499.26,391.81,502.45Zm-9.52-20c-3,1.48-4.38,3.45-3.32,5.65s3.24,2.12,6.09.74a12.19,12.19,0,0,0,4.46-3.48C388.05,482.34,385.48,480.91,382.29,482.46ZM431,452.76l7.74-7.58L434.46,436l9.07,4.48,7.74-7.58-2.12,10.34,9.07,4.48-10.4,1.92L445.68,460l-4.29-9.16Zm-29-2-1.47-2.12a199.05,199.05,0,0,1-229.18-1.34l-1.5,2.1A201.63,201.63,0,0,0,402,450.73Zm-113.81-363a198.37,198.37,0,0,1,106.63,31l1.38-2.18a201.7,201.7,0,0,0-216,0l1.38,2.18A198.35,198.35,0,0,1,288.15,87.71Z"/><path class="cls-2" d="M288,543.48C147.12,543.48,32.52,428.87,32.52,288S147.12,32.52,288,32.52,543.48,147.13,543.48,288,428.88,543.48,288,543.48Zm0-506.67C149.5,36.81,36.81,149.49,36.81,288S149.5,539.19,288,539.19,539.19,426.51,539.19,288,426.5,36.81,288,36.81Z"/></svg>